<?xml version="1.0" encoding="UTF-8" standalone="no"?>
<svg
   version="1.1"
   width="5.7941093cm"
   height="4.0557628cm"
   viewBox="0 0 22811.454 15967.571"
   id="svg372"
   sodipodi:docname="sch_fingering.svg"
   inkscape:version="1.1.1 (3bf5ae0d25, 2021-09-20)"
   xmlns:inkscape="http://www.inkscape.org/namespaces/inkscape"
   xmlns:sodipodi="http://sodipodi.sourceforge.net/DTD/sodipodi-0.dtd"
   xmlns="http://www.w3.org/2000/svg"
   xmlns:svg="http://www.w3.org/2000/svg"
   xmlns:rdf="http://www.w3.org/1999/02/22-rdf-syntax-ns#"
   xmlns:cc="http://creativecommons.org/ns#"
   xmlns:dc="http://purl.org/dc/elements/1.1/">
  <defs
     id="defs376" />
  <sodipodi:namedview
     id="namedview374"
     pagecolor="#505050"
     bordercolor="#eeeeee"
     borderopacity="1"
     inkscape:pageshadow="0"
     inkscape:pageopacity="0"
     inkscape:pagecheckerboard="0"
     inkscape:document-units="cm"
     showgrid="false"
     fit-margin-top="0"
     fit-margin-left="0"
     fit-margin-right="0"
     fit-margin-bottom="0"
     inkscape:zoom="3.9257782"
     inkscape:cx="129.01901"
     inkscape:cy="16.68459"
     inkscape:window-width="2560"
     inkscape:window-height="1361"
     inkscape:window-x="2551"
     inkscape:window-y="-9"
     inkscape:window-maximized="1"
     inkscape:current-layer="g124" />
  <title
     id="title2">SVG Picture created as versuchsaufbau.svg date 2022/02/02 17:06:31 </title>
  <desc
     id="desc4">Picture generated by Eeschema-SVG </desc>
  <g
     style="fill:#000000;fill-opacity:1;stroke:#000000;stroke-linecap:round;stroke-linejoin:round;stroke-opacity:1"
     id="g6"
     transform="translate(-33970,-23470)" />
  <g
     id="g8"
     transform="translate(-33970,-23470)"
     style="fill:#000000;fill-opacity:0;stroke:#000000;stroke-width:60;stroke-linecap:round;stroke-linejoin:round;stroke-opacity:1" />
  <g
     style="fill:#840000;fill-opacity:0;stroke:#840000;stroke-width:60;stroke-linecap:round;stroke-linejoin:round;stroke-opacity:1"
     id="g10"
     transform="translate(-33970,-23470)" />
  <g
     style="fill:#840000;fill-opacity:0;stroke:#840000;stroke-width:100;stroke-linecap:round;stroke-linejoin:round;stroke-opacity:1"
     id="g14"
     transform="translate(-33970,-23470)">
    <rect
       x="36500"
       y="31600"
       width="2000"
       height="800"
       rx="0.000000"
       id="rect12" />
  </g>
  <g
     style="fill:#840000;fill-opacity:0;stroke:#840000;stroke-width:60;stroke-linecap:round;stroke-linejoin:round;stroke-opacity:1"
     id="g20"
     transform="translate(-33970,-23470)">
    <path
       d="m 38500,32000 h 500"
       id="path16" />
    <path
       d="m 36500,32000 h -500"
       id="path18" />
  </g>
  <text
     x="37500"
     y="30180"
     textLength="2106.1812"
     font-size="666.654px"
     lengthAdjust="spacingAndGlyphs"
     text-anchor="middle"
     opacity="0"
     id="text22"
     transform="translate(-33970,-23470)"
     style="fill:#006464;fill-opacity:0;stroke:#006464;stroke-width:60;stroke-linecap:round;stroke-linejoin:round;stroke-opacity:1">R_xle</text>
  <g
     class="stroked-text"
     id="g40"
     transform="translate(-33970,-22501.508)"
     style="fill:#006464;fill-opacity:0;stroke:#006464;stroke-width:60;stroke-linecap:round;stroke-linejoin:round;stroke-opacity:1">
    <desc
       id="desc24">R_xle</desc>
    <path
       d="m 36916,30156 -166,-238"
       id="path26" />
    <path
       d="m 36630,30156 v -500 h 191 l 48,24 23,23 24,48 v 71 l -24,48 -23,24 -48,24 h -191"
       id="path28" />
    <path
       d="m 37011,30203 h 381"
       id="path30" />
    <path
       d="m 37464,30156 262,-334"
       id="path32" />
    <path
       d="m 37464,29822 262,334"
       id="path34" />
    <path
       d="m 37988,30156 -48,-24 -24,-48 v -428"
       id="path36" />
    <path
       d="m 38369,30132 -48,24 h -95 l -48,-24 -24,-48 v -190 l 24,-48 48,-24 h 95 l 48,24 23,48 v 47 l -238,48"
       id="path38" />
  </g>
  <text
     x="37500"
     y="31090"
     textLength="560"
     font-size="666.654px"
     lengthAdjust="spacingAndGlyphs"
     text-anchor="middle"
     opacity="0"
     id="text42"
     transform="translate(-33970,-23470)"
     style="fill:#006464;fill-opacity:0;stroke:#006464;stroke-width:60;stroke-linecap:round;stroke-linejoin:round;stroke-opacity:1">R</text>
  <g
     id="g56"
     transform="translate(-33970,-23470)"
     style="fill:#006464;fill-opacity:0;stroke:#006464;stroke-width:60;stroke-linecap:round;stroke-linejoin:round;stroke-opacity:1" />
  <g
     style="fill:#840000;fill-opacity:0;stroke:#840000;stroke-width:60;stroke-linecap:round;stroke-linejoin:round;stroke-opacity:1"
     id="g58"
     transform="translate(-33970,-23470)" />
  <g
     style="fill:#840000;fill-opacity:0;stroke:#840000;stroke-width:100;stroke-linecap:round;stroke-linejoin:round;stroke-opacity:1"
     id="g62"
     transform="translate(-33970,-23470)">
    <rect
       x="40600"
       y="34500"
       width="800"
       height="2000"
       rx="0.000000"
       id="rect60" />
  </g>
  <g
     style="fill:#840000;fill-opacity:0;stroke:#840000;stroke-width:60;stroke-linecap:round;stroke-linejoin:round;stroke-opacity:1"
     id="g68"
     transform="translate(-33970,-23470)">
    <path
       d="m 41000,34500 v -500"
       id="path64" />
    <path
       d="m 41000,36500 v 500"
       id="path66" />
  </g>
  <text
     x="42719.332"
     y="35290"
     textLength="2036.1812"
     font-size="666.654px"
     lengthAdjust="spacingAndGlyphs"
     text-anchor="middle"
     opacity="0"
     id="text70"
     transform="translate(-33970,-23470)"
     style="fill:#006464;fill-opacity:0;stroke:#006464;stroke-width:60;stroke-linecap:round;stroke-linejoin:round;stroke-opacity:1">R_ylo</text>
  <g
     class="stroked-text"
     id="g88"
     transform="translate(-33970,-23005.655)"
     style="fill:#006464;fill-opacity:0;stroke:#006464;stroke-width:60;stroke-linecap:round;stroke-linejoin:round;stroke-opacity:1">
    <desc
       id="desc72">R_ylo</desc>
    <path
       d="m 42135,35266 -166,-238"
       id="path74" />
    <path
       d="m 41850,35266 v -500 h 190 l 48,24 24,23 23,48 v 71 l -23,48 -24,24 -48,24 h -190"
       id="path76" />
    <path
       d="m 42231,35313 h 381"
       id="path78" />
    <path
       d="m 42683,34932 119,334"
       id="path80" />
    <path
       d="m 42921,34932 -119,334 -47,119 -24,24 -48,23"
       id="path82" />
    <path
       d="m 43183,35266 -48,-24 -23,-48 v -428"
       id="path84" />
    <path
       d="m 43445,35266 -48,-24 -23,-24 -24,-48 v -142 l 24,-48 23,-24 48,-24 h 71 l 48,24 24,24 24,48 v 142 l -24,48 -24,24 -48,24 h -71"
       id="path86" />
  </g>
  <text
     x="41981.262"
     y="36200"
     textLength="560"
     font-size="666.654px"
     lengthAdjust="spacingAndGlyphs"
     text-anchor="middle"
     opacity="0"
     id="text90"
     transform="translate(-33970,-23470)"
     style="fill:#006464;fill-opacity:0;stroke:#006464;stroke-width:60;stroke-linecap:round;stroke-linejoin:round;stroke-opacity:1">R</text>
  <g
     style="fill:#006464;fill-opacity:0;stroke:#006464;stroke-width:60;stroke-linecap:round;stroke-linejoin:round;stroke-opacity:1"
     id="g124"
     transform="translate(-33970,-23470)">
    <g
       id="g104" />
    <g
       style="fill:#840000;fill-opacity:0;stroke:#840000;stroke-width:60;stroke-linecap:round;stroke-linejoin:round;stroke-opacity:1"
       id="g108">
      <path
         style="fill:none;fill-opacity:0;stroke:#840000;stroke-width:60;stroke-linecap:round;stroke-linejoin:round;stroke-opacity:1"
         d="m 56000,30000 v 500 h 500 l -500,500 -500,-500 h 500"
         id="path106" />
    </g>
    <g
       style="fill:#006464;fill-opacity:0;stroke:#006464;stroke-width:60;stroke-linecap:round;stroke-linejoin:round;stroke-opacity:1"
       id="g122">
      <text
         x="56000"
         y="32250"
         textLength="1583.8188"
         font-size="666.654px"
         lengthAdjust="spacingAndGlyphs"
         text-anchor="middle"
         opacity="0"
         id="text110">GND</text>
      <g
         class="stroked-text"
         id="g120">
        <desc
           id="desc112">GND</desc>
        <path
           d="m 55619,31750 -48,-24 h -71 l -72,24 -48,47 -23,48 -24,95 v 71 l 24,96 23,47 48,48 72,24 h 47 l 72,-24 23,-24 v -167 h -95"
           id="path114" />
        <path
           d="m 55857,32226 v -500 l 285,500 v -500"
           id="path116" />
        <path
           d="m 56380,32226 v -500 h 120 l 71,24 48,47 23,48 24,95 v 71 l -24,96 -23,47 -48,48 -71,24 h -120"
           id="path118" />
      </g>
    </g>
  </g>
  <g
     style="fill:#006464;fill-opacity:0;stroke:#006464;stroke-width:62.5197;stroke-linecap:round;stroke-linejoin:round;stroke-opacity:1"
     id="g126"
     transform="translate(-33970,-23470)" />
  <g
     style="fill:#006464;fill-opacity:0;stroke:#006464;stroke-width:60;stroke-linecap:round;stroke-linejoin:round;stroke-opacity:1"
     id="g128"
     transform="translate(-33970,-23470)" />
  <g
     style="fill:#840000;fill-opacity:0;stroke:#840000;stroke-width:60;stroke-linecap:round;stroke-linejoin:round;stroke-opacity:1"
     id="g146"
     transform="translate(-33970,-23470)">
    <text
       x="55000"
       y="33285.746"
       textLength="1488.5826"
       font-size="666.654px"
       lengthAdjust="spacingAndGlyphs"
       text-anchor="start"
       opacity="0"
       id="text130">ADC</text>
    <g
       class="stroked-text"
       id="g142">
      <desc
         id="desc132">ADC</desc>
      <path
         d="m 55125,33119 h 238"
         id="path134" />
      <path
         d="m 55077,33261 167,-500 166,500"
         id="path136" />
      <path
         d="m 55577,33261 v -500 h 119 l 72,24 47,48 24,47 24,96 v 71 l -24,95 -24,48 -47,48 -72,23 h -119"
         id="path138" />
      <path
         d="m 56363,33214 -24,24 -71,23 h -48 l -71,-23 -48,-48 -24,-48 -24,-95 v -71 l 24,-96 24,-47 48,-48 71,-24 h 48 l 71,24 24,24"
         id="path140" />
    </g>
    <path
       style="fill:none;fill-opacity:0;stroke:#840000;stroke-width:60;stroke-linecap:round;stroke-linejoin:round;stroke-opacity:1"
       d="m 54500,33000 375,437.638 h 1803.74 V 33000 32562.362 H 54875 Z"
       id="path144" />
  </g>
  <g
     style="fill:#840000;fill-opacity:0;stroke:#840000;stroke-width:62.5197;stroke-linecap:round;stroke-linejoin:round;stroke-opacity:1"
     id="g148"
     transform="translate(-33970,-23470)" />
  <g
     style="fill:#840000;fill-opacity:0;stroke:#840000;stroke-width:60;stroke-linecap:round;stroke-linejoin:round;stroke-opacity:1"
     id="g150"
     transform="translate(-33970,-23470)" />
  <g
     style="fill:#0f0f0f;fill-opacity:0;stroke:#0f0f0f;stroke-width:60;stroke-linecap:round;stroke-linejoin:round;stroke-opacity:1"
     id="g172"
     transform="translate(-33970,-23470)">
    <text
       x="51000"
       y="31897.48"
       textLength="1657.7559"
       font-size="666.654px"
       lengthAdjust="spacingAndGlyphs"
       text-anchor="start"
       opacity="0"
       id="text152">X_Ri</text>
    <g
       class="stroked-text"
       id="g170">
      <desc
         id="desc154">X_Ri</desc>
      <path
         d="m 51101,31373 333,500"
         id="path156" />
      <path
         d="m 51434,31373 -333,500"
         id="path158" />
      <path
         d="m 51506,31921 h 381"
         id="path160" />
      <path
         d="m 52291,31873 -166,-238"
         id="path162" />
      <path
         d="m 52006,31873 v -500 h 190 l 48,24 24,24 23,47 v 72 l -23,47 -24,24 -48,24 h -190"
         id="path164" />
      <path
         d="m 52506,31873 v -333"
         id="path166" />
      <path
         d="m 52506,31373 -24,24 24,24 24,-24 -24,-24 v 48"
         id="path168" />
    </g>
  </g>
  <g
     style="fill:#0f0f0f;fill-opacity:0;stroke:#0f0f0f;stroke-width:62.5197;stroke-linecap:round;stroke-linejoin:round;stroke-opacity:1"
     id="g174"
     transform="translate(-33970,-23470)" />
  <g
     style="fill:#0f0f0f;fill-opacity:0;stroke:#0f0f0f;stroke-width:60;stroke-linecap:round;stroke-linejoin:round;stroke-opacity:1"
     id="g194"
     transform="translate(-33970,-23470)">
    <text
       x="51000"
       y="30897.48"
       textLength="1845.7086"
       font-size="666.654px"
       lengthAdjust="spacingAndGlyphs"
       text-anchor="start"
       opacity="0"
       id="text176">Y_Up</text>
    <g
       class="stroked-text"
       id="g192">
      <desc
         id="desc178">Y_Up</desc>
      <path
         d="m 51244,30635 v 238"
         id="path180" />
      <path
         d="m 51077,30373 167,262 166,-262"
         id="path182" />
      <path
         d="m 51458,30921 h 381"
         id="path184" />
      <path
         d="m 51958,30373 v 405 l 24,48 24,23 47,24 h 96 l 47,-24 24,-23 24,-48 v -405"
         id="path186" />
      <path
         d="m 52482,30540 v 500"
         id="path188" />
      <path
         d="m 52482,30564 48,-24 h 95 l 47,24 24,23 24,48 v 143 l -24,48 -24,23 -47,24 h -95 l -48,-24"
         id="path190" />
    </g>
  </g>
  <g
     style="fill:#0f0f0f;fill-opacity:0;stroke:#0f0f0f;stroke-width:62.5197;stroke-linecap:round;stroke-linejoin:round;stroke-opacity:1"
     id="g196"
     transform="translate(-33970,-23470)" />
  <g
     style="fill:#0f0f0f;fill-opacity:0;stroke:#0f0f0f;stroke-width:60;stroke-linecap:round;stroke-linejoin:round;stroke-opacity:1"
     id="g214"
     transform="translate(-33970,-23470)">
    <text
       x="51000"
       y="32897.48"
       textLength="1726.6536"
       font-size="666.654px"
       lengthAdjust="spacingAndGlyphs"
       text-anchor="start"
       opacity="0"
       id="text198">Y_Lo</text>
    <g
       class="stroked-text"
       id="g212">
      <desc
         id="desc200">Y_Lo</desc>
      <path
         d="m 51244,32635 v 238"
         id="path202" />
      <path
         d="m 51077,32373 167,262 166,-262"
         id="path204" />
      <path
         d="m 51458,32921 h 381"
         id="path206" />
      <path
         d="m 52196,32873 h -238 v -500"
         id="path208" />
      <path
         d="m 52434,32873 -47,-24 -24,-23 -24,-48 v -143 l 24,-48 24,-23 47,-24 h 72 l 47,24 24,23 24,48 v 143 l -24,48 -24,23 -47,24 h -72"
         id="path210" />
    </g>
  </g>
  <g
     style="fill:#0f0f0f;fill-opacity:0;stroke:#0f0f0f;stroke-width:62.5197;stroke-linecap:round;stroke-linejoin:round;stroke-opacity:1"
     id="g216"
     transform="translate(-33970,-23470)" />
  <g
     style="fill:#0f0f0f;fill-opacity:0;stroke:#0f0f0f;stroke-width:60;stroke-linecap:round;stroke-linejoin:round;stroke-opacity:1"
     id="g234"
     transform="translate(-33970,-23470)">
    <text
       x="51000"
       y="29897.48"
       textLength="1750.4724"
       font-size="666.654px"
       lengthAdjust="spacingAndGlyphs"
       text-anchor="start"
       opacity="0"
       id="text218">X_Le</text>
    <g
       class="stroked-text"
       id="g232">
      <desc
         id="desc220">X_Le</desc>
      <path
         d="m 51101,29373 333,500"
         id="path222" />
      <path
         d="m 51434,29373 -333,500"
         id="path224" />
      <path
         d="m 51506,29921 h 381"
         id="path226" />
      <path
         d="m 52244,29873 h -238 v -500"
         id="path228" />
      <path
         d="m 52601,29849 -48,24 h -95 l -48,-24 -23,-47 v -191 l 23,-47 48,-24 h 95 l 48,24 24,47 v 48 l -238,47"
         id="path230" />
    </g>
  </g>
  <g
     style="fill:#0f0f0f;fill-opacity:0;stroke:#0f0f0f;stroke-width:62.5197;stroke-linecap:round;stroke-linejoin:round;stroke-opacity:1"
     id="g236"
     transform="translate(-33970,-23470)" />
  <g
     style="fill:#0f0f0f;fill-opacity:0;stroke:#0f0f0f;stroke-width:60;stroke-linecap:round;stroke-linejoin:round;stroke-opacity:1"
     id="g238"
     transform="translate(-33970,-23470)" />
  <g
     style="fill:#0000c2;fill-opacity:0;stroke:#0000c2;stroke-width:60;stroke-linecap:round;stroke-linejoin:round;stroke-opacity:1"
     id="g304"
     transform="translate(-33970,-23470)">
    <text
       x="43500"
       y="39397.48"
       textLength="8821.8896"
       font-size="666.654px"
       lengthAdjust="spacingAndGlyphs"
       text-anchor="end"
       opacity="0"
       id="text240">Resistive Touch Screen</text>
    <g
       class="stroked-text"
       id="g302">
      <desc
         id="desc242">Resistive Touch Screen</desc>
      <path
         d="m 35112,39373 -166,-238"
         id="path244" />
      <path
         d="m 34827,39373 v -500 h 190 l 48,24 24,24 23,47 v 72 l -23,47 -24,24 -48,24 h -190"
         id="path246" />
      <path
         d="m 35517,39349 -47,24 h -96 l -47,-24 -24,-47 v -191 l 24,-47 47,-24 h 96 l 47,24 24,47 v 48 l -238,47"
         id="path248" />
      <path
         d="m 35731,39349 48,24 h 95 l 48,-24 24,-47 v -24 l -24,-48 -48,-24 h -71 l -48,-23 -24,-48 v -24 l 24,-47 48,-24 h 71 l 48,24"
         id="path250" />
      <path
         d="m 36160,39373 v -333"
         id="path252" />
      <path
         d="m 36160,38873 -24,24 24,24 24,-24 -24,-24 v 48"
         id="path254" />
      <path
         d="m 36374,39349 48,24 h 95 l 48,-24 24,-47 v -24 l -24,-48 -48,-24 h -71 l -48,-23 -24,-48 v -24 l 24,-47 48,-24 h 71 l 48,24"
         id="path256" />
      <path
         d="m 36731,39040 h 191"
         id="path258" />
      <path
         d="m 36803,38873 v 429 l 24,47 47,24 h 48"
         id="path260" />
      <path
         d="m 37089,39373 v -333"
         id="path262" />
      <path
         d="m 37089,38873 -24,24 24,24 23,-24 -23,-24 v 48"
         id="path264" />
      <path
         d="m 37279,39040 119,333 119,-333"
         id="path266" />
      <path
         d="m 37898,39349 -48,24 h -95 l -47,-24 -24,-47 v -191 l 24,-47 47,-24 h 95 l 48,24 24,47 v 48 l -238,47"
         id="path268" />
      <path
         d="m 38446,38873 h 285"
         id="path270" />
      <path
         d="m 38589,39373 v -500"
         id="path272" />
      <path
         d="m 38970,39373 -48,-24 -24,-23 -24,-48 v -143 l 24,-48 24,-23 48,-24 h 71 l 48,24 23,23 24,48 v 143 l -24,48 -23,23 -48,24 h -71"
         id="path274" />
      <path
         d="m 39565,39040 v 333"
         id="path276" />
      <path
         d="m 39350,39040 v 262 l 24,47 48,24 h 71 l 48,-24 24,-23"
         id="path278" />
      <path
         d="m 40017,39349 -47,24 h -96 l -47,-24 -24,-23 -24,-48 v -143 l 24,-48 24,-23 47,-24 h 96 l 47,24"
         id="path280" />
      <path
         d="m 40231,39373 v -500"
         id="path282" />
      <path
         d="m 40446,39373 v -262 l -24,-47 -48,-24 h -71 l -48,24 -24,23"
         id="path284" />
      <path
         d="m 41041,39349 71,24 h 119 l 48,-24 24,-23 24,-48 v -48 l -24,-47 -24,-24 -48,-24 -95,-24 -47,-24 -24,-23 -24,-48 v -48 l 24,-47 24,-24 47,-24 h 119 l 72,24"
         id="path286" />
      <path
         d="m 41755,39349 -47,24 h -96 l -47,-24 -24,-23 -24,-48 v -143 l 24,-48 24,-23 47,-24 h 96 l 47,24"
         id="path288" />
      <path
         d="m 41970,39373 v -333"
         id="path290" />
      <path
         d="m 41970,39135 23,-48 24,-23 48,-24 h 47"
         id="path292" />
      <path
         d="m 42470,39349 -48,24 h -95 l -48,-24 -24,-47 v -191 l 24,-47 48,-24 h 95 l 48,24 23,47 v 48 l -238,47"
         id="path294" />
      <path
         d="m 42898,39349 -48,24 h -95 l -47,-24 -24,-47 v -191 l 24,-47 47,-24 h 95 l 48,24 24,47 v 48 l -238,47"
         id="path296" />
      <path
         d="m 43136,39040 v 333"
         id="path298" />
      <path
         d="m 43136,39087 24,-23 48,-24 h 71 l 48,24 23,47 v 262"
         id="path300" />
    </g>
  </g>
  <g
     style="fill:#0000c2;fill-opacity:0;stroke:#0000c2;stroke-width:60;stroke-linecap:round;stroke-linejoin:round;stroke-dasharray:300, 300;stroke-opacity:1"
     id="g308"
     transform="translate(-33970,-23470)">
    <path
       d="M 47500,38000 H 34500"
       id="path306" />
  </g>
  <g
     style="fill:#0000c2;fill-opacity:0;stroke:#0000c2;stroke-width:60;stroke-linecap:round;stroke-linejoin:round;stroke-opacity:1"
     id="g310"
     transform="translate(-33970,-23470)" />
  <g
     style="fill:#0000c2;fill-opacity:0;stroke:#0000c2;stroke-width:60;stroke-linecap:round;stroke-linejoin:round;stroke-dasharray:300, 300;stroke-opacity:1"
     id="g314"
     transform="translate(-33970,-23470)">
    <path
       d="M 34500,38000 V 26000"
       id="path312" />
  </g>
  <g
     style="fill:#0000c2;fill-opacity:0;stroke:#0000c2;stroke-width:60;stroke-linecap:round;stroke-linejoin:round;stroke-opacity:1"
     id="g316"
     transform="translate(-33970,-23470)" />
  <g
     style="fill:#0000c2;fill-opacity:0;stroke:#0000c2;stroke-width:60;stroke-linecap:round;stroke-linejoin:round;stroke-dasharray:300, 300;stroke-opacity:1"
     id="g320"
     transform="translate(-33970,-23470)">
    <path
       d="M 34500,26000 H 47500"
       id="path318" />
  </g>
  <g
     style="fill:#0000c2;fill-opacity:0;stroke:#0000c2;stroke-width:60;stroke-linecap:round;stroke-linejoin:round;stroke-opacity:1"
     id="g322"
     transform="translate(-33970,-23470)" />
  <g
     style="fill:#0000c2;fill-opacity:0;stroke:#0000c2;stroke-width:60;stroke-linecap:round;stroke-linejoin:round;stroke-dasharray:300, 300;stroke-opacity:1"
     id="g326"
     transform="translate(-33970,-23470)">
    <path
       d="M 47500,26000 V 38000"
       id="path324" />
  </g>
  <g
     style="fill:#0000c2;fill-opacity:0;stroke:#0000c2;stroke-width:60;stroke-linecap:round;stroke-linejoin:round;stroke-opacity:1"
     id="g328"
     transform="translate(-33970,-23470)" />
  <g
     style="fill:#009600;fill-opacity:0;stroke:#009600;stroke-width:60;stroke-linecap:round;stroke-linejoin:round;stroke-opacity:1"
     id="g366"
     transform="translate(-33970,-23470)">
    <path
       d="m 46000,32000 h 8500"
       id="path330" />
    <path
       d="m 48500,31000 h 6000"
       id="path332" />
    <path
       d="m 48500,33000 h 6000"
       id="path334" />
    <path
       d="m 41000,37000 v 1500"
       id="path336" />
    <path
       d="m 41000,30000 v 2000"
       id="path338" />
    <path
       d="M 41000,27000 V 25000"
       id="path340" />
    <path
       d="m 41000,25000 h 7500"
       id="path342" />
    <path
       d="M 34000,23500 H 49000"
       id="path344" />
    <path
       d="m 34000,23500 v 8500"
       id="path346" />
    <path
       d="m 39000,32000 h 2000"
       id="path348" />
    <path
       d="m 48500,25000 v 6000"
       id="path350" />
    <path
       d="m 49000,23500 v 6500"
       id="path352" />
    <path
       d="M 36000,32000 H 34000"
       id="path354" />
    <path
       d="m 41000,32000 v 2000"
       id="path356" />
    <path
       d="m 41000,32000 h 2000"
       id="path358" />
    <path
       d="m 41000,38500 h 7500"
       id="path360" />
    <path
       d="m 48500,33000 v 5500"
       id="path362" />
    <path
       d="m 49000,30000 h 7000"
       id="path364" />
  </g>
  <g
     style="fill:#009600;fill-opacity:1;stroke:#009600;stroke-width:60;stroke-linecap:round;stroke-linejoin:round;stroke-opacity:1"
     id="g370"
     transform="translate(-33970,-23470)">
    <circle
       cx="41000"
       cy="32000"
       r="180"
       id="circle368" />
  </g>
  <metadata
     id="metadata1193">
    <rdf:RDF>
      <cc:Work
         rdf:about="">
        <dc:title>SVG Picture created as versuchsaufbau.svg date 2022/02/02 17:06:31 </dc:title>
      </cc:Work>
    </rdf:RDF>
  </metadata>
</svg>
