<?xml version="1.0" encoding="UTF-8" standalone="no"?>
<svg
   version="1.1"
   width="6.3099957cm"
   height="4.0557628cm"
   viewBox="0 0 24842.502 15967.571"
   id="svg416"
   sodipodi:docname="read_y.svg"
   inkscape:version="1.1.1 (3bf5ae0d25, 2021-09-20)"
   xmlns:inkscape="http://www.inkscape.org/namespaces/inkscape"
   xmlns:sodipodi="http://sodipodi.sourceforge.net/DTD/sodipodi-0.dtd"
   xmlns="http://www.w3.org/2000/svg"
   xmlns:svg="http://www.w3.org/2000/svg"
   xmlns:rdf="http://www.w3.org/1999/02/22-rdf-syntax-ns#"
   xmlns:cc="http://creativecommons.org/ns#"
   xmlns:dc="http://purl.org/dc/elements/1.1/">
  <defs
     id="defs420" />
  <sodipodi:namedview
     id="namedview418"
     pagecolor="#505050"
     bordercolor="#eeeeee"
     borderopacity="1"
     inkscape:pageshadow="0"
     inkscape:pageopacity="0"
     inkscape:pagecheckerboard="0"
     inkscape:document-units="cm"
     showgrid="false"
     fit-margin-top="0"
     fit-margin-left="0"
     fit-margin-right="0"
     fit-margin-bottom="0"
     inkscape:zoom="0.90585192"
     inkscape:cx="235.68974"
     inkscape:cy="171.66161"
     inkscape:window-width="2560"
     inkscape:window-height="1361"
     inkscape:window-x="2551"
     inkscape:window-y="-9"
     inkscape:window-maximized="1"
     inkscape:current-layer="svg416" />
  <title
     id="title2">SVG Picture created as versuchsaufbau.svg date 2022/02/17 00:26:50 </title>
  <desc
     id="desc4">Picture generated by Eeschema-SVG </desc>
  <g
     style="fill:#000000;fill-opacity:1;stroke:#000000;stroke-linecap:round;stroke-linejoin:round;stroke-opacity:1"
     id="g6"
     transform="translate(-33970,-23470)" />
  <g
     style="fill:#000000;fill-opacity:0;stroke:#000000;stroke-width:60;stroke-linecap:round;stroke-linejoin:round;stroke-opacity:1"
     id="g28"
     transform="translate(-33970,-23470)">
    <g
       id="g8" />
    <g
       style="fill:#840000;fill-opacity:0;stroke:#840000;stroke-width:60;stroke-linecap:round;stroke-linejoin:round;stroke-opacity:1"
       id="g12">
      <path
         style="fill:none;fill-opacity:0;stroke:#840000;stroke-width:60;stroke-linecap:round;stroke-linejoin:round;stroke-opacity:1"
         d="m 58000,33000 v 500 h 500 l -500,500 -500,-500 h 500"
         id="path10" />
    </g>
    <g
       style="fill:#006464;fill-opacity:0;stroke:#006464;stroke-width:60;stroke-linecap:round;stroke-linejoin:round;stroke-opacity:1"
       id="g26">
      <text
         x="58000"
         y="35250"
         textLength="1583.8188"
         font-size="666.654px"
         lengthAdjust="spacingAndGlyphs"
         text-anchor="middle"
         opacity="0"
         id="text14">GND</text>
      <g
         class="stroked-text"
         id="g24">
        <desc
           id="desc16">GND</desc>
        <path
           d="m 57619,34750 -48,-24 h -71 l -72,24 -48,47 -23,48 -24,95 v 71 l 24,96 23,47 48,48 72,24 h 47 l 72,-24 23,-24 v -167 h -95"
           id="path18" />
        <path
           d="m 57857,35226 v -500 l 285,500 v -500"
           id="path20" />
        <path
           d="m 58380,35226 v -500 h 120 l 71,24 48,47 23,48 24,95 v 71 l -24,96 -23,47 -48,48 -71,24 h -120"
           id="path22" />
      </g>
    </g>
  </g>
  <g
     style="fill:#006464;fill-opacity:0;stroke:#006464;stroke-width:60;stroke-linecap:round;stroke-linejoin:round;stroke-opacity:1"
     id="g66"
     transform="translate(-33970,-23470)">
    <g
       id="g30" />
    <g
       style="fill:#840000;fill-opacity:0;stroke:#840000;stroke-width:60;stroke-linecap:round;stroke-linejoin:round;stroke-opacity:1"
       id="g32" />
    <g
       style="fill:#840000;fill-opacity:0;stroke:#840000;stroke-width:100;stroke-linecap:round;stroke-linejoin:round;stroke-opacity:1"
       id="g36">
      <rect
         x="36500"
         y="31600"
         width="2000"
         height="800"
         rx="0.000000"
         id="rect34" />
    </g>
    <g
       style="fill:#840000;fill-opacity:0;stroke:#840000;stroke-width:60;stroke-linecap:round;stroke-linejoin:round;stroke-opacity:1"
       id="g42">
      <path
         d="m 38500,32000 h 500"
         id="path38" />
      <path
         d="m 36500,32000 h -500"
         id="path40" />
    </g>
    <g
       style="fill:#006464;fill-opacity:0;stroke:#006464;stroke-width:60;stroke-linecap:round;stroke-linejoin:round;stroke-opacity:1"
       id="g64">
      <text
         x="37500"
         y="31250"
         textLength="1798.1102"
         font-size="666.654px"
         lengthAdjust="spacingAndGlyphs"
         text-anchor="middle"
         opacity="0"
         id="text44">R_xh</text>
      <g
         class="stroked-text"
         id="g62">
        <desc
           id="desc46">R_xh</desc>
        <path
           d="m 37035,31226 -166,-238"
           id="path48" />
        <path
           d="m 36750,31226 v -500 h 190 l 48,24 23,23 24,48 v 71 l -24,48 -23,24 -48,24 h -190"
           id="path50" />
        <path
           d="m 37130,31273 h 381"
           id="path52" />
        <path
           d="m 37583,31226 262,-334"
           id="path54" />
        <path
           d="m 37583,30892 262,334"
           id="path56" />
        <path
           d="m 38035,31226 v -500"
           id="path58" />
        <path
           d="m 38250,31226 v -262 l -24,-48 -48,-24 h -71 l -48,24 -24,24"
           id="path60" />
      </g>
    </g>
  </g>
  <g
     style="fill:#006464;fill-opacity:0;stroke:#006464;stroke-width:60;stroke-linecap:round;stroke-linejoin:round;stroke-opacity:1"
     id="g102"
     transform="translate(-33970,-23470)">
    <g
       id="g68" />
    <g
       style="fill:#840000;fill-opacity:0;stroke:#840000;stroke-width:60;stroke-linecap:round;stroke-linejoin:round;stroke-opacity:1"
       id="g70" />
    <g
       style="fill:#840000;fill-opacity:0;stroke:#840000;stroke-width:100;stroke-linecap:round;stroke-linejoin:round;stroke-opacity:1"
       id="g74">
      <rect
         x="40600"
         y="34500"
         width="800"
         height="2000"
         rx="0.000000"
         id="rect72" />
    </g>
    <g
       style="fill:#840000;fill-opacity:0;stroke:#840000;stroke-width:60;stroke-linecap:round;stroke-linejoin:round;stroke-opacity:1"
       id="g80">
      <path
         d="m 41000,34500 v -500"
         id="path76" />
      <path
         d="m 41000,36500 v 500"
         id="path78" />
    </g>
    <g
       style="fill:#006464;fill-opacity:0;stroke:#006464;stroke-width:60;stroke-linecap:round;stroke-linejoin:round;stroke-opacity:1"
       id="g100">
      <text
         x="42293.148"
         y="35750"
         textLength="1583.8188"
         font-size="666.654px"
         lengthAdjust="spacingAndGlyphs"
         text-anchor="middle"
         opacity="0"
         id="text82">R_yl</text>
      <g
         class="stroked-text"
         id="g98">
        <desc
           id="desc84">R_yl</desc>
        <path
           d="m 41935,35726 -166,-238"
           id="path86" />
        <path
           d="m 41650,35726 v -500 h 190 l 48,24 24,23 23,48 v 71 l -23,48 -24,24 -48,24 h -190"
           id="path88" />
        <path
           d="m 42031,35773 h 381"
           id="path90" />
        <path
           d="m 42483,35392 119,334"
           id="path92" />
        <path
           d="m 42721,35392 -119,334 -47,119 -24,24 -48,23"
           id="path94" />
        <path
           d="m 42983,35726 -48,-24 -23,-48 v -428"
           id="path96" />
      </g>
    </g>
  </g>
  <g
     style="fill:#006464;fill-opacity:0;stroke:#006464;stroke-width:60;stroke-linecap:round;stroke-linejoin:round;stroke-opacity:1"
     id="g140"
     transform="translate(-33970,-23470)">
    <g
       id="g104" />
    <g
       style="fill:#840000;fill-opacity:0;stroke:#840000;stroke-width:60;stroke-linecap:round;stroke-linejoin:round;stroke-opacity:1"
       id="g106" />
    <g
       style="fill:#840000;fill-opacity:0;stroke:#840000;stroke-width:100;stroke-linecap:round;stroke-linejoin:round;stroke-opacity:1"
       id="g110">
      <rect
         x="40600"
         y="27500"
         width="800"
         height="2000"
         rx="0.000000"
         id="rect108" />
    </g>
    <g
       style="fill:#840000;fill-opacity:0;stroke:#840000;stroke-width:60;stroke-linecap:round;stroke-linejoin:round;stroke-opacity:1"
       id="g116">
      <path
         d="m 41000,27500 v -500"
         id="path112" />
      <path
         d="m 41000,29500 v 500"
         id="path114" />
    </g>
    <g
       style="fill:#006464;fill-opacity:0;stroke:#006464;stroke-width:60;stroke-linecap:round;stroke-linejoin:round;stroke-opacity:1"
       id="g138">
      <text
         x="42388.387"
         y="28750"
         textLength="1774.2914"
         font-size="666.654px"
         lengthAdjust="spacingAndGlyphs"
         text-anchor="middle"
         opacity="0"
         id="text118">R_yh</text>
      <g
         class="stroked-text"
         id="g136">
        <desc
           id="desc120">R_yh</desc>
        <path
           d="m 41935,28726 -166,-238"
           id="path122" />
        <path
           d="m 41650,28726 v -500 h 190 l 48,24 24,23 23,48 v 71 l -23,48 -24,24 -48,24 h -190"
           id="path124" />
        <path
           d="m 42031,28773 h 381"
           id="path126" />
        <path
           d="m 42483,28392 119,334"
           id="path128" />
        <path
           d="m 42721,28392 -119,334 -47,119 -24,24 -48,23"
           id="path130" />
        <path
           d="m 42912,28726 v -500"
           id="path132" />
        <path
           d="m 43126,28726 v -262 l -24,-48 -47,-24 h -72 l -48,24 -23,24"
           id="path134" />
      </g>
    </g>
  </g>
  <g
     style="fill:#006464;fill-opacity:0;stroke:#006464;stroke-width:60;stroke-linecap:round;stroke-linejoin:round;stroke-opacity:1"
     id="g168"
     transform="translate(-33970,-23470)">
    <g
       id="g142" />
    <g
       style="fill:#840000;fill-opacity:0;stroke:#840000;stroke-width:60;stroke-linecap:round;stroke-linejoin:round;stroke-opacity:1"
       id="g150">
      <path
         style="fill:none;fill-opacity:0;stroke:#840000;stroke-width:60;stroke-linecap:round;stroke-linejoin:round;stroke-opacity:1"
         d="m 57700,30500 300,-500"
         id="path144" />
      <path
         style="fill:none;fill-opacity:0;stroke:#840000;stroke-width:60;stroke-linecap:round;stroke-linejoin:round;stroke-opacity:1"
         d="M 58000,31000 V 30000"
         id="path146" />
      <path
         style="fill:none;fill-opacity:0;stroke:#840000;stroke-width:60;stroke-linecap:round;stroke-linejoin:round;stroke-opacity:1"
         d="m 58000,30000 300,500"
         id="path148" />
    </g>
    <g
       style="fill:#006464;fill-opacity:0;stroke:#006464;stroke-width:60;stroke-linecap:round;stroke-linejoin:round;stroke-opacity:1"
       id="g166">
      <text
         x="58000"
         y="29250"
         textLength="1583.8188"
         font-size="666.654px"
         lengthAdjust="spacingAndGlyphs"
         text-anchor="middle"
         opacity="0"
         id="text152">+5V</text>
      <g
         class="stroked-text"
         id="g164">
        <desc
           id="desc154">+5V</desc>
        <path
           d="m 57357,29035 h 381"
           id="path156" />
        <path
           d="m 57547,29226 v -381"
           id="path158" />
        <path
           d="m 58214,28726 h -238 l -24,238 24,-24 47,-24 h 119 l 48,24 24,24 24,47 v 119 l -24,48 -24,24 -48,24 h -119 l -47,-24 -24,-24"
           id="path160" />
        <path
           d="m 58380,28726 167,500 167,-500"
           id="path162" />
      </g>
    </g>
  </g>
  <g
     style="fill:#006464;fill-opacity:0;stroke:#006464;stroke-width:62.5197;stroke-linecap:round;stroke-linejoin:round;stroke-opacity:1"
     id="g170"
     transform="translate(-33970,-23470)" />
  <g
     style="fill:#006464;fill-opacity:0;stroke:#006464;stroke-width:60;stroke-linecap:round;stroke-linejoin:round;stroke-opacity:1"
     id="g172"
     transform="translate(-33970,-23470)" />
  <g
     style="fill:#840000;fill-opacity:0;stroke:#840000;stroke-width:60;stroke-linecap:round;stroke-linejoin:round;stroke-opacity:1"
     id="g190"
     transform="translate(-33970,-23470)">
    <text
       x="55000"
       y="30285.748"
       textLength="1488.5826"
       font-size="666.654px"
       lengthAdjust="spacingAndGlyphs"
       text-anchor="start"
       opacity="0"
       id="text174">ADC</text>
    <g
       class="stroked-text"
       id="g186">
      <desc
         id="desc176">ADC</desc>
      <path
         d="m 55125,30119 h 238"
         id="path178" />
      <path
         d="m 55077,30261 167,-500 166,500"
         id="path180" />
      <path
         d="m 55577,30261 v -500 h 119 l 72,24 47,48 24,47 24,96 v 71 l -24,95 -24,48 -47,48 -72,23 h -119"
         id="path182" />
      <path
         d="m 56363,30214 -24,24 -71,23 h -48 l -71,-23 -48,-48 -24,-48 -24,-95 v -71 l 24,-96 24,-47 48,-48 71,-24 h 48 l 71,24 24,24"
         id="path184" />
    </g>
    <path
       style="fill:none;fill-opacity:0;stroke:#840000;stroke-width:60;stroke-linecap:round;stroke-linejoin:round;stroke-opacity:1"
       d="m 54500,30000 375,437.638 h 1803.74 V 30000 29562.362 H 54875 Z"
       id="path188" />
  </g>
  <g
     style="fill:#840000;fill-opacity:0;stroke:#840000;stroke-width:62.5197;stroke-linecap:round;stroke-linejoin:round;stroke-opacity:1"
     id="g192"
     transform="translate(-33970,-23470)" />
  <g
     style="fill:#840000;fill-opacity:0;stroke:#840000;stroke-width:60;stroke-linecap:round;stroke-linejoin:round;stroke-opacity:1"
     id="g194"
     transform="translate(-33970,-23470)" />
  <g
     style="fill:#0f0f0f;fill-opacity:0;stroke:#0f0f0f;stroke-width:60;stroke-linecap:round;stroke-linejoin:round;stroke-opacity:1"
     id="g216"
     transform="translate(-33970,-23470)">
    <text
       x="51000"
       y="31897.48"
       textLength="1657.7559"
       font-size="666.654px"
       lengthAdjust="spacingAndGlyphs"
       text-anchor="start"
       opacity="0"
       id="text196">X_Ri</text>
    <g
       class="stroked-text"
       id="g214">
      <desc
         id="desc198">X_Ri</desc>
      <path
         d="m 51101,31373 333,500"
         id="path200" />
      <path
         d="m 51434,31373 -333,500"
         id="path202" />
      <path
         d="m 51506,31921 h 381"
         id="path204" />
      <path
         d="m 52291,31873 -166,-238"
         id="path206" />
      <path
         d="m 52006,31873 v -500 h 190 l 48,24 24,24 23,47 v 72 l -23,47 -24,24 -48,24 h -190"
         id="path208" />
      <path
         d="m 52506,31873 v -333"
         id="path210" />
      <path
         d="m 52506,31373 -24,24 24,24 24,-24 -24,-24 v 48"
         id="path212" />
    </g>
  </g>
  <g
     style="fill:#0f0f0f;fill-opacity:0;stroke:#0f0f0f;stroke-width:62.5197;stroke-linecap:round;stroke-linejoin:round;stroke-opacity:1"
     id="g218"
     transform="translate(-33970,-23470)" />
  <g
     style="fill:#0f0f0f;fill-opacity:0;stroke:#0f0f0f;stroke-width:60;stroke-linecap:round;stroke-linejoin:round;stroke-opacity:1"
     id="g236"
     transform="translate(-33970,-23470)">
    <text
       x="51000"
       y="32897.48"
       textLength="1726.6536"
       font-size="666.654px"
       lengthAdjust="spacingAndGlyphs"
       text-anchor="start"
       opacity="0"
       id="text220">Y_Lo</text>
    <g
       class="stroked-text"
       id="g234">
      <desc
         id="desc222">Y_Lo</desc>
      <path
         d="m 51244,32635 v 238"
         id="path224" />
      <path
         d="m 51077,32373 167,262 166,-262"
         id="path226" />
      <path
         d="m 51458,32921 h 381"
         id="path228" />
      <path
         d="m 52196,32873 h -238 v -500"
         id="path230" />
      <path
         d="m 52434,32873 -47,-24 -24,-23 -24,-48 v -143 l 24,-48 24,-23 47,-24 h 72 l 47,24 24,23 24,48 v 143 l -24,48 -24,23 -47,24 h -72"
         id="path232" />
    </g>
  </g>
  <g
     style="fill:#0f0f0f;fill-opacity:0;stroke:#0f0f0f;stroke-width:62.5197;stroke-linecap:round;stroke-linejoin:round;stroke-opacity:1"
     id="g238"
     transform="translate(-33970,-23470)" />
  <g
     style="fill:#0f0f0f;fill-opacity:0;stroke:#0f0f0f;stroke-width:60;stroke-linecap:round;stroke-linejoin:round;stroke-opacity:1"
     id="g256"
     transform="translate(-33970,-23470)">
    <text
       x="51000"
       y="29897.48"
       textLength="1750.4724"
       font-size="666.654px"
       lengthAdjust="spacingAndGlyphs"
       text-anchor="start"
       opacity="0"
       id="text240">X_Le</text>
    <g
       class="stroked-text"
       id="g254">
      <desc
         id="desc242">X_Le</desc>
      <path
         d="m 51101,29373 333,500"
         id="path244" />
      <path
         d="m 51434,29373 -333,500"
         id="path246" />
      <path
         d="m 51506,29921 h 381"
         id="path248" />
      <path
         d="m 52244,29873 h -238 v -500"
         id="path250" />
      <path
         d="m 52601,29849 -48,24 h -95 l -48,-24 -23,-47 v -191 l 23,-47 48,-24 h 95 l 48,24 24,47 v 48 l -238,47"
         id="path252" />
    </g>
  </g>
  <g
     style="fill:#0f0f0f;fill-opacity:0;stroke:#0f0f0f;stroke-width:62.5197;stroke-linecap:round;stroke-linejoin:round;stroke-opacity:1"
     id="g258"
     transform="translate(-33970,-23470)" />
  <g
     style="fill:#0f0f0f;fill-opacity:0;stroke:#0f0f0f;stroke-width:60;stroke-linecap:round;stroke-linejoin:round;stroke-opacity:1"
     id="g278"
     transform="translate(-33970,-23470)">
    <text
       x="51000"
       y="30897.48"
       textLength="1845.7086"
       font-size="666.654px"
       lengthAdjust="spacingAndGlyphs"
       text-anchor="start"
       opacity="0"
       id="text260">Y_Up</text>
    <g
       class="stroked-text"
       id="g276">
      <desc
         id="desc262">Y_Up</desc>
      <path
         d="m 51244,30635 v 238"
         id="path264" />
      <path
         d="m 51077,30373 167,262 166,-262"
         id="path266" />
      <path
         d="m 51458,30921 h 381"
         id="path268" />
      <path
         d="m 51958,30373 v 405 l 24,48 24,23 47,24 h 96 l 47,-24 24,-23 24,-48 v -405"
         id="path270" />
      <path
         d="m 52482,30540 v 500"
         id="path272" />
      <path
         d="m 52482,30564 48,-24 h 95 l 47,24 24,23 24,48 v 143 l -24,48 -24,23 -47,24 h -95 l -48,-24"
         id="path274" />
    </g>
  </g>
  <g
     style="fill:#0f0f0f;fill-opacity:0;stroke:#0f0f0f;stroke-width:62.5197;stroke-linecap:round;stroke-linejoin:round;stroke-opacity:1"
     id="g280"
     transform="translate(-33970,-23470)" />
  <g
     style="fill:#0f0f0f;fill-opacity:0;stroke:#0f0f0f;stroke-width:60;stroke-linecap:round;stroke-linejoin:round;stroke-opacity:1"
     id="g282"
     transform="translate(-33970,-23470)" />
  <g
     style="fill:#0000c2;fill-opacity:0;stroke:#0000c2;stroke-width:60;stroke-linecap:round;stroke-linejoin:round;stroke-opacity:1"
     id="g348"
     transform="translate(-33970,-23470)">
    <text
       x="43500"
       y="39397.48"
       textLength="8821.8896"
       font-size="666.654px"
       lengthAdjust="spacingAndGlyphs"
       text-anchor="end"
       opacity="0"
       id="text284">Resistive Touch Screen</text>
    <g
       class="stroked-text"
       id="g346">
      <desc
         id="desc286">Resistive Touch Screen</desc>
      <path
         d="m 35112,39373 -166,-238"
         id="path288" />
      <path
         d="m 34827,39373 v -500 h 190 l 48,24 24,24 23,47 v 72 l -23,47 -24,24 -48,24 h -190"
         id="path290" />
      <path
         d="m 35517,39349 -47,24 h -96 l -47,-24 -24,-47 v -191 l 24,-47 47,-24 h 96 l 47,24 24,47 v 48 l -238,47"
         id="path292" />
      <path
         d="m 35731,39349 48,24 h 95 l 48,-24 24,-47 v -24 l -24,-48 -48,-24 h -71 l -48,-23 -24,-48 v -24 l 24,-47 48,-24 h 71 l 48,24"
         id="path294" />
      <path
         d="m 36160,39373 v -333"
         id="path296" />
      <path
         d="m 36160,38873 -24,24 24,24 24,-24 -24,-24 v 48"
         id="path298" />
      <path
         d="m 36374,39349 48,24 h 95 l 48,-24 24,-47 v -24 l -24,-48 -48,-24 h -71 l -48,-23 -24,-48 v -24 l 24,-47 48,-24 h 71 l 48,24"
         id="path300" />
      <path
         d="m 36731,39040 h 191"
         id="path302" />
      <path
         d="m 36803,38873 v 429 l 24,47 47,24 h 48"
         id="path304" />
      <path
         d="m 37089,39373 v -333"
         id="path306" />
      <path
         d="m 37089,38873 -24,24 24,24 23,-24 -23,-24 v 48"
         id="path308" />
      <path
         d="m 37279,39040 119,333 119,-333"
         id="path310" />
      <path
         d="m 37898,39349 -48,24 h -95 l -47,-24 -24,-47 v -191 l 24,-47 47,-24 h 95 l 48,24 24,47 v 48 l -238,47"
         id="path312" />
      <path
         d="m 38446,38873 h 285"
         id="path314" />
      <path
         d="m 38589,39373 v -500"
         id="path316" />
      <path
         d="m 38970,39373 -48,-24 -24,-23 -24,-48 v -143 l 24,-48 24,-23 48,-24 h 71 l 48,24 23,23 24,48 v 143 l -24,48 -23,23 -48,24 h -71"
         id="path318" />
      <path
         d="m 39565,39040 v 333"
         id="path320" />
      <path
         d="m 39350,39040 v 262 l 24,47 48,24 h 71 l 48,-24 24,-23"
         id="path322" />
      <path
         d="m 40017,39349 -47,24 h -96 l -47,-24 -24,-23 -24,-48 v -143 l 24,-48 24,-23 47,-24 h 96 l 47,24"
         id="path324" />
      <path
         d="m 40231,39373 v -500"
         id="path326" />
      <path
         d="m 40446,39373 v -262 l -24,-47 -48,-24 h -71 l -48,24 -24,23"
         id="path328" />
      <path
         d="m 41041,39349 71,24 h 119 l 48,-24 24,-23 24,-48 v -48 l -24,-47 -24,-24 -48,-24 -95,-24 -47,-24 -24,-23 -24,-48 v -48 l 24,-47 24,-24 47,-24 h 119 l 72,24"
         id="path330" />
      <path
         d="m 41755,39349 -47,24 h -96 l -47,-24 -24,-23 -24,-48 v -143 l 24,-48 24,-23 47,-24 h 96 l 47,24"
         id="path332" />
      <path
         d="m 41970,39373 v -333"
         id="path334" />
      <path
         d="m 41970,39135 23,-48 24,-23 48,-24 h 47"
         id="path336" />
      <path
         d="m 42470,39349 -48,24 h -95 l -48,-24 -24,-47 v -191 l 24,-47 48,-24 h 95 l 48,24 23,47 v 48 l -238,47"
         id="path338" />
      <path
         d="m 42898,39349 -48,24 h -95 l -47,-24 -24,-47 v -191 l 24,-47 47,-24 h 95 l 48,24 24,47 v 48 l -238,47"
         id="path340" />
      <path
         d="m 43136,39040 v 333"
         id="path342" />
      <path
         d="m 43136,39087 24,-23 48,-24 h 71 l 48,24 23,47 v 262"
         id="path344" />
    </g>
  </g>
  <g
     style="fill:#0000c2;fill-opacity:0;stroke:#0000c2;stroke-width:60;stroke-linecap:round;stroke-linejoin:round;stroke-dasharray:300, 300;stroke-opacity:1"
     id="g352"
     transform="translate(-33970,-23470)">
    <path
       d="M 47500,26000 V 38000"
       id="path350" />
  </g>
  <g
     style="fill:#0000c2;fill-opacity:0;stroke:#0000c2;stroke-width:60;stroke-linecap:round;stroke-linejoin:round;stroke-opacity:1"
     id="g354"
     transform="translate(-33970,-23470)" />
  <g
     style="fill:#0000c2;fill-opacity:0;stroke:#0000c2;stroke-width:60;stroke-linecap:round;stroke-linejoin:round;stroke-dasharray:300, 300;stroke-opacity:1"
     id="g358"
     transform="translate(-33970,-23470)">
    <path
       d="M 34500,26000 H 47500"
       id="path356" />
  </g>
  <g
     style="fill:#0000c2;fill-opacity:0;stroke:#0000c2;stroke-width:60;stroke-linecap:round;stroke-linejoin:round;stroke-opacity:1"
     id="g360"
     transform="translate(-33970,-23470)" />
  <g
     style="fill:#0000c2;fill-opacity:0;stroke:#0000c2;stroke-width:60;stroke-linecap:round;stroke-linejoin:round;stroke-dasharray:300, 300;stroke-opacity:1"
     id="g364"
     transform="translate(-33970,-23470)">
    <path
       d="M 47500,38000 H 34500"
       id="path362" />
  </g>
  <g
     style="fill:#0000c2;fill-opacity:0;stroke:#0000c2;stroke-width:60;stroke-linecap:round;stroke-linejoin:round;stroke-opacity:1"
     id="g366"
     transform="translate(-33970,-23470)" />
  <g
     style="fill:#0000c2;fill-opacity:0;stroke:#0000c2;stroke-width:60;stroke-linecap:round;stroke-linejoin:round;stroke-dasharray:300, 300;stroke-opacity:1"
     id="g370"
     transform="translate(-33970,-23470)">
    <path
       d="M 34500,38000 V 26000"
       id="path368" />
  </g>
  <g
     style="fill:#0000c2;fill-opacity:0;stroke:#0000c2;stroke-width:60;stroke-linecap:round;stroke-linejoin:round;stroke-opacity:1"
     id="g372"
     transform="translate(-33970,-23470)" />
  <g
     style="fill:#009600;fill-opacity:0;stroke:#009600;stroke-width:60;stroke-linecap:round;stroke-linejoin:round;stroke-opacity:1"
     id="g410"
     transform="translate(-33970,-23470)">
    <path
       d="m 41000,30000 v 2000"
       id="path374" />
    <path
       d="M 36000,32000 H 34000"
       id="path376" />
    <path
       d="m 41000,25000 h 7500"
       id="path378" />
    <path
       d="M 34000,23500 H 49000"
       id="path380" />
    <path
       d="m 34000,23500 v 8500"
       id="path382" />
    <path
       d="m 39000,32000 h 2000"
       id="path384" />
    <path
       d="m 41000,32000 h 2000"
       id="path386" />
    <path
       d="m 41000,32000 v 2000"
       id="path388" />
    <path
       d="m 48500,25000 v 6000"
       id="path390" />
    <path
       d="m 49000,23500 v 6500"
       id="path392" />
    <path
       d="m 41000,38500 h 7500"
       id="path394" />
    <path
       d="m 48500,31000 h 9500"
       id="path396" />
    <path
       d="m 49000,30000 h 5500"
       id="path398" />
    <path
       d="m 48500,33000 h 9500"
       id="path400" />
    <path
       d="m 46000,32000 h 8500"
       id="path402" />
    <path
       d="m 48500,33000 v 5500"
       id="path404" />
    <path
       d="m 41000,37000 v 1500"
       id="path406" />
    <path
       d="M 41000,27000 V 25000"
       id="path408" />
  </g>
  <g
     style="fill:#009600;fill-opacity:1;stroke:#009600;stroke-width:60;stroke-linecap:round;stroke-linejoin:round;stroke-opacity:1"
     id="g414"
     transform="translate(-33970,-23470)">
    <circle
       cx="41000"
       cy="32000"
       r="180"
       id="circle412" />
  </g>
  <metadata
     id="metadata1237">
    <rdf:RDF>
      <cc:Work
         rdf:about="">
        <dc:title>SVG Picture created as versuchsaufbau.svg date 2022/02/17 00:26:50 </dc:title>
      </cc:Work>
    </rdf:RDF>
  </metadata>
</svg>
