<?xml version="1.0" encoding="UTF-8" standalone="no"?>
<svg
   version="1.1"
   width="5.8019958cm"
   height="4.0557628cm"
   viewBox="0 0 22842.503 15967.571"
   id="svg452"
   sodipodi:docname="sch_read.svg"
   inkscape:version="1.1 (c68e22c387, 2021-05-23)"
   xmlns:inkscape="http://www.inkscape.org/namespaces/inkscape"
   xmlns:sodipodi="http://sodipodi.sourceforge.net/DTD/sodipodi-0.dtd"
   xmlns="http://www.w3.org/2000/svg"
   xmlns:svg="http://www.w3.org/2000/svg"
   xmlns:rdf="http://www.w3.org/1999/02/22-rdf-syntax-ns#"
   xmlns:cc="http://creativecommons.org/ns#"
   xmlns:dc="http://purl.org/dc/elements/1.1/">
  <defs
     id="defs456" />
  <sodipodi:namedview
     id="namedview454"
     pagecolor="#505050"
     bordercolor="#eeeeee"
     borderopacity="1"
     inkscape:pageshadow="0"
     inkscape:pageopacity="0"
     inkscape:pagecheckerboard="0"
     inkscape:document-units="cm"
     showgrid="false"
     fit-margin-top="0"
     fit-margin-left="0"
     fit-margin-right="0"
     fit-margin-bottom="0"
     inkscape:zoom="0.98144457"
     inkscape:cx="234.85789"
     inkscape:cy="171.6857"
     inkscape:window-width="2560"
     inkscape:window-height="1361"
     inkscape:window-x="-9"
     inkscape:window-y="-9"
     inkscape:window-maximized="1"
     inkscape:current-layer="svg452" />
  <title
     id="title2">SVG Picture created as versuchsaufbau.svg date 2022/02/02 17:08:01 </title>
  <desc
     id="desc4">Picture generated by Eeschema-SVG </desc>
  <g
     style="fill:#000000;fill-opacity:1;stroke:#000000;stroke-linecap:round;stroke-linejoin:round;stroke-opacity:1"
     id="g6"
     transform="translate(-33970,-23470)" />
  <g
     style="fill:#000000;fill-opacity:0;stroke:#000000;stroke-width:60;stroke-linecap:round;stroke-linejoin:round;stroke-opacity:1"
     id="g54"
     transform="translate(-33970,-23470)">
    <g
       id="g8" />
    <g
       style="fill:#840000;fill-opacity:0;stroke:#840000;stroke-width:60;stroke-linecap:round;stroke-linejoin:round;stroke-opacity:1"
       id="g10" />
    <g
       style="fill:#840000;fill-opacity:0;stroke:#840000;stroke-width:100;stroke-linecap:round;stroke-linejoin:round;stroke-opacity:1"
       id="g14">
      <rect
         x="36500"
         y="31600"
         width="2000"
         height="800"
         rx="0.000000"
         id="rect12" />
    </g>
    <g
       style="fill:#840000;fill-opacity:0;stroke:#840000;stroke-width:60;stroke-linecap:round;stroke-linejoin:round;stroke-opacity:1"
       id="g20">
      <path
         d="m 38500,32000 h 500"
         id="path16" />
      <path
         d="m 36500,32000 h -500"
         id="path18" />
    </g>
    <g
       style="fill:#006464;fill-opacity:0;stroke:#006464;stroke-width:60;stroke-linecap:round;stroke-linejoin:round;stroke-opacity:1"
       id="g52">
      <text
         x="37500"
         y="30180"
         textLength="2106.1812"
         font-size="666.654px"
         lengthAdjust="spacingAndGlyphs"
         text-anchor="middle"
         opacity="0"
         id="text22">R_xle</text>
      <g
         class="stroked-text"
         id="g40">
        <desc
           id="desc24">R_xle</desc>
        <path
           d="m 36916,30156 -166,-238"
           id="path26" />
        <path
           d="m 36630,30156 v -500 h 191 l 48,24 23,23 24,48 v 71 l -24,48 -23,24 -48,24 h -191"
           id="path28" />
        <path
           d="m 37011,30203 h 381"
           id="path30" />
        <path
           d="m 37464,30156 262,-334"
           id="path32" />
        <path
           d="m 37464,29822 262,334"
           id="path34" />
        <path
           d="m 37988,30156 -48,-24 -24,-48 v -428"
           id="path36" />
        <path
           d="m 38369,30132 -48,24 h -95 l -48,-24 -24,-48 v -190 l 24,-48 48,-24 h 95 l 48,24 23,48 v 47 l -238,48"
           id="path38" />
      </g>
      <text
         x="37500"
         y="31090"
         textLength="560"
         font-size="666.654px"
         lengthAdjust="spacingAndGlyphs"
         text-anchor="middle"
         opacity="0"
         id="text42">R</text>
      <g
         class="stroked-text"
         id="g50">
        <desc
           id="desc44">R</desc>
        <path
           d="m 37654,31066 -166,-238"
           id="path46" />
        <path
           d="m 37369,31066 v -500 h 190 l 48,24 23,23 24,48 v 71 l -24,48 -23,24 -48,24 h -190"
           id="path48" />
      </g>
    </g>
  </g>
  <g
     style="fill:#006464;fill-opacity:0;stroke:#006464;stroke-width:60;stroke-linecap:round;stroke-linejoin:round;stroke-opacity:1"
     id="g106"
     transform="translate(-33970,-23470)">
    <g
       id="g56" />
    <g
       style="fill:#840000;fill-opacity:0;stroke:#840000;stroke-width:60;stroke-linecap:round;stroke-linejoin:round;stroke-opacity:1"
       id="g58" />
    <g
       style="fill:#840000;fill-opacity:0;stroke:#840000;stroke-width:100;stroke-linecap:round;stroke-linejoin:round;stroke-opacity:1"
       id="g62">
      <rect
         x="40600"
         y="27500"
         width="800"
         height="2000"
         rx="0.000000"
         id="rect60" />
    </g>
    <g
       style="fill:#840000;fill-opacity:0;stroke:#840000;stroke-width:60;stroke-linecap:round;stroke-linejoin:round;stroke-opacity:1"
       id="g68">
      <path
         d="m 41000,27500 v -500"
         id="path64" />
      <path
         d="m 41000,29500 v 500"
         id="path66" />
    </g>
    <g
       style="fill:#006464;fill-opacity:0;stroke:#006464;stroke-width:60;stroke-linecap:round;stroke-linejoin:round;stroke-opacity:1"
       id="g104">
      <text
         x="42814.566"
         y="28290"
         textLength="2226.6536"
         font-size="666.654px"
         lengthAdjust="spacingAndGlyphs"
         text-anchor="middle"
         opacity="0"
         id="text70">R_yup</text>
      <g
         class="stroked-text"
         id="g92">
        <desc
           id="desc72">R_yup</desc>
        <path
           d="m 42135,28266 -166,-238"
           id="path74" />
        <path
           d="m 41850,28266 v -500 h 190 l 48,24 24,23 23,48 v 71 l -23,48 -24,24 -48,24 h -190"
           id="path76" />
        <path
           d="m 42231,28313 h 381"
           id="path78" />
        <path
           d="m 42683,27932 119,334"
           id="path80" />
        <path
           d="m 42921,27932 -119,334 -47,119 -24,24 -48,23"
           id="path82" />
        <path
           d="m 43326,27932 v 334"
           id="path84" />
        <path
           d="m 43112,27932 v 262 l 23,48 48,24 h 72 l 47,-24 24,-24"
           id="path86" />
        <path
           d="m 43564,27932 v 500"
           id="path88" />
        <path
           d="m 43564,27956 48,-24 h 95 l 48,24 23,24 24,48 v 142 l -24,48 -23,24 -48,24 h -95 l -48,-24"
           id="path90" />
      </g>
      <text
         x="41981.262"
         y="29200"
         textLength="560"
         font-size="666.654px"
         lengthAdjust="spacingAndGlyphs"
         text-anchor="middle"
         opacity="0"
         id="text94">R</text>
      <g
         class="stroked-text"
         id="g102">
        <desc
           id="desc96">R</desc>
        <path
           d="m 42135,29176 -166,-238"
           id="path98" />
        <path
           d="m 41850,29176 v -500 h 190 l 48,24 24,23 23,48 v 71 l -23,48 -24,24 -48,24 h -190"
           id="path100" />
      </g>
    </g>
  </g>
  <g
     style="fill:#006464;fill-opacity:0;stroke:#006464;stroke-width:60;stroke-linecap:round;stroke-linejoin:round;stroke-opacity:1"
     id="g154"
     transform="translate(-33970,-23470)">
    <g
       id="g108" />
    <g
       style="fill:#840000;fill-opacity:0;stroke:#840000;stroke-width:60;stroke-linecap:round;stroke-linejoin:round;stroke-opacity:1"
       id="g110" />
    <g
       style="fill:#840000;fill-opacity:0;stroke:#840000;stroke-width:100;stroke-linecap:round;stroke-linejoin:round;stroke-opacity:1"
       id="g114">
      <rect
         x="43500"
         y="31600"
         width="2000"
         height="800"
         rx="0.000000"
         id="rect112" />
    </g>
    <g
       style="fill:#840000;fill-opacity:0;stroke:#840000;stroke-width:60;stroke-linecap:round;stroke-linejoin:round;stroke-opacity:1"
       id="g120">
      <path
         d="m 45500,32000 h 500"
         id="path116" />
      <path
         d="m 43500,32000 h -500"
         id="path118" />
    </g>
    <g
       style="fill:#006464;fill-opacity:0;stroke:#006464;stroke-width:60;stroke-linecap:round;stroke-linejoin:round;stroke-opacity:1"
       id="g152">
      <text
         x="44500"
         y="30180"
         textLength="1488.5826"
         font-size="666.654px"
         lengthAdjust="spacingAndGlyphs"
         text-anchor="middle"
         opacity="0"
         id="text122">R_ri</text>
      <g
         class="stroked-text"
         id="g140">
        <desc
           id="desc124">R_ri</desc>
        <path
           d="m 44190,30156 -167,-238"
           id="path126" />
        <path
           d="m 43904,30156 v -500 h 191 l 47,24 24,23 24,48 v 71 l -24,48 -24,24 -47,24 h -191"
           id="path128" />
        <path
           d="m 44285,30203 h 381"
           id="path130" />
        <path
           d="m 44785,30156 v -334"
           id="path132" />
        <path
           d="m 44785,29918 24,-48 24,-24 47,-24 h 48"
           id="path134" />
        <path
           d="m 45095,30156 v -334"
           id="path136" />
        <path
           d="m 45095,29656 -24,24 24,23 24,-23 -24,-24 v 47"
           id="path138" />
      </g>
      <text
         x="44500"
         y="31090"
         textLength="560"
         font-size="666.654px"
         lengthAdjust="spacingAndGlyphs"
         text-anchor="middle"
         opacity="0"
         id="text142">R</text>
      <g
         class="stroked-text"
         id="g150">
        <desc
           id="desc144">R</desc>
        <path
           d="m 44654,31066 -166,-238"
           id="path146" />
        <path
           d="m 44369,31066 v -500 h 190 l 48,24 23,23 24,48 v 71 l -24,48 -23,24 -48,24 h -190"
           id="path148" />
      </g>
    </g>
  </g>
  <g
     style="fill:#006464;fill-opacity:0;stroke:#006464;stroke-width:60;stroke-linecap:round;stroke-linejoin:round;stroke-opacity:1"
     id="g176"
     transform="translate(-33970,-23470)">
    <g
       id="g156" />
    <g
       style="fill:#840000;fill-opacity:0;stroke:#840000;stroke-width:60;stroke-linecap:round;stroke-linejoin:round;stroke-opacity:1"
       id="g160">
      <path
         style="fill:none;fill-opacity:0;stroke:#840000;stroke-width:60;stroke-linecap:round;stroke-linejoin:round;stroke-opacity:1"
         d="m 56000,32000 v 500 h 500 l -500,500 -500,-500 h 500"
         id="path158" />
    </g>
    <g
       style="fill:#006464;fill-opacity:0;stroke:#006464;stroke-width:60;stroke-linecap:round;stroke-linejoin:round;stroke-opacity:1"
       id="g174">
      <text
         x="56000"
         y="34250"
         textLength="1583.8188"
         font-size="666.654px"
         lengthAdjust="spacingAndGlyphs"
         text-anchor="middle"
         opacity="0"
         id="text162">GND</text>
      <g
         class="stroked-text"
         id="g172">
        <desc
           id="desc164">GND</desc>
        <path
           d="m 55619,33750 -48,-24 h -71 l -72,24 -48,47 -23,48 -24,95 v 71 l 24,96 23,47 48,48 72,24 h 47 l 72,-24 23,-24 v -167 h -95"
           id="path166" />
        <path
           d="m 55857,34226 v -500 l 285,500 v -500"
           id="path168" />
        <path
           d="m 56380,34226 v -500 h 120 l 71,24 48,47 23,48 24,95 v 71 l -24,96 -23,47 -48,48 -71,24 h -120"
           id="path170" />
      </g>
    </g>
  </g>
  <g
     style="fill:#006464;fill-opacity:0;stroke:#006464;stroke-width:60;stroke-linecap:round;stroke-linejoin:round;stroke-opacity:1"
     id="g204"
     transform="translate(-33970,-23470)">
    <g
       id="g178" />
    <g
       style="fill:#840000;fill-opacity:0;stroke:#840000;stroke-width:60;stroke-linecap:round;stroke-linejoin:round;stroke-opacity:1"
       id="g186">
      <path
         style="fill:none;fill-opacity:0;stroke:#840000;stroke-width:60;stroke-linecap:round;stroke-linejoin:round;stroke-opacity:1"
         d="m 55700,29500 300,-500"
         id="path180" />
      <path
         style="fill:none;fill-opacity:0;stroke:#840000;stroke-width:60;stroke-linecap:round;stroke-linejoin:round;stroke-opacity:1"
         d="M 56000,30000 V 29000"
         id="path182" />
      <path
         style="fill:none;fill-opacity:0;stroke:#840000;stroke-width:60;stroke-linecap:round;stroke-linejoin:round;stroke-opacity:1"
         d="m 56000,29000 300,500"
         id="path184" />
    </g>
    <g
       style="fill:#006464;fill-opacity:0;stroke:#006464;stroke-width:60;stroke-linecap:round;stroke-linejoin:round;stroke-opacity:1"
       id="g202">
      <text
         x="56000"
         y="28250"
         textLength="1583.8188"
         font-size="666.654px"
         lengthAdjust="spacingAndGlyphs"
         text-anchor="middle"
         opacity="0"
         id="text188">+5V</text>
      <g
         class="stroked-text"
         id="g200">
        <desc
           id="desc190">+5V</desc>
        <path
           d="m 55357,28035 h 381"
           id="path192" />
        <path
           d="m 55547,28226 v -381"
           id="path194" />
        <path
           d="m 56214,27726 h -238 l -24,238 24,-24 47,-24 h 119 l 48,24 24,24 24,47 v 119 l -24,48 -24,24 -48,24 h -119 l -47,-24 -24,-24"
           id="path196" />
        <path
           d="m 56380,27726 167,500 167,-500"
           id="path198" />
      </g>
    </g>
  </g>
  <g
     style="fill:#006464;fill-opacity:0;stroke:#006464;stroke-width:62.5197;stroke-linecap:round;stroke-linejoin:round;stroke-opacity:1"
     id="g206"
     transform="translate(-33970,-23470)" />
  <g
     style="fill:#006464;fill-opacity:0;stroke:#006464;stroke-width:60;stroke-linecap:round;stroke-linejoin:round;stroke-opacity:1"
     id="g208"
     transform="translate(-33970,-23470)" />
  <g
     style="fill:#840000;fill-opacity:0;stroke:#840000;stroke-width:60;stroke-linecap:round;stroke-linejoin:round;stroke-opacity:1"
     id="g226"
     transform="translate(-33970,-23470)">
    <text
       x="55000"
       y="31285.748"
       textLength="1488.5826"
       font-size="666.654px"
       lengthAdjust="spacingAndGlyphs"
       text-anchor="start"
       opacity="0"
       id="text210">ADC</text>
    <g
       class="stroked-text"
       id="g222">
      <desc
         id="desc212">ADC</desc>
      <path
         d="m 55125,31119 h 238"
         id="path214" />
      <path
         d="m 55077,31261 167,-500 166,500"
         id="path216" />
      <path
         d="m 55577,31261 v -500 h 119 l 72,24 47,48 24,47 24,96 v 71 l -24,95 -24,48 -47,48 -72,23 h -119"
         id="path218" />
      <path
         d="m 56363,31214 -24,24 -71,23 h -48 l -71,-23 -48,-48 -24,-48 -24,-95 v -71 l 24,-96 24,-47 48,-48 71,-24 h 48 l 71,24 24,24"
         id="path220" />
    </g>
    <path
       style="fill:none;fill-opacity:0;stroke:#840000;stroke-width:60;stroke-linecap:round;stroke-linejoin:round;stroke-opacity:1"
       d="m 54500,31000 375,437.638 h 1803.74 V 31000 30562.362 H 54875 Z"
       id="path224" />
  </g>
  <g
     style="fill:#840000;fill-opacity:0;stroke:#840000;stroke-width:62.5197;stroke-linecap:round;stroke-linejoin:round;stroke-opacity:1"
     id="g228"
     transform="translate(-33970,-23470)" />
  <g
     style="fill:#840000;fill-opacity:0;stroke:#840000;stroke-width:60;stroke-linecap:round;stroke-linejoin:round;stroke-opacity:1"
     id="g230"
     transform="translate(-33970,-23470)" />
  <g
     style="fill:#0f0f0f;fill-opacity:0;stroke:#0f0f0f;stroke-width:60;stroke-linecap:round;stroke-linejoin:round;stroke-opacity:1"
     id="g248"
     transform="translate(-33970,-23470)">
    <text
       x="51000"
       y="32897.48"
       textLength="1729.1732"
       font-size="666.654px"
       lengthAdjust="spacingAndGlyphs"
       text-anchor="start"
       opacity="0"
       id="text232">Y_Lo</text>
    <g
       class="stroked-text"
       id="g246">
      <desc
         id="desc234">Y_Lo</desc>
      <path
         d="m 51244,32635 v 238"
         id="path236" />
      <path
         d="m 51077,32373 167,262 166,-262"
         id="path238" />
      <path
         d="m 51458,32921 h 381"
         id="path240" />
      <path
         d="m 52196,32873 h -238 v -500"
         id="path242" />
      <path
         d="m 52434,32873 -47,-24 -24,-23 -24,-48 v -143 l 24,-48 24,-23 47,-24 h 72 l 47,24 24,23 24,48 v 143 l -24,48 -24,23 -47,24 h -72"
         id="path244" />
    </g>
  </g>
  <g
     style="fill:#0f0f0f;fill-opacity:0;stroke:#0f0f0f;stroke-width:62.5197;stroke-linecap:round;stroke-linejoin:round;stroke-opacity:1"
     id="g250"
     transform="translate(-33970,-23470)" />
  <g
     style="fill:#0f0f0f;fill-opacity:0;stroke:#0f0f0f;stroke-width:60;stroke-linecap:round;stroke-linejoin:round;stroke-opacity:1"
     id="g270"
     transform="translate(-33970,-23470)">
    <text
       x="51000"
       y="30897.48"
       textLength="1845.7086"
       font-size="666.654px"
       lengthAdjust="spacingAndGlyphs"
       text-anchor="start"
       opacity="0"
       id="text252">Y_Up</text>
    <g
       class="stroked-text"
       id="g268">
      <desc
         id="desc254">Y_Up</desc>
      <path
         d="m 51244,30635 v 238"
         id="path256" />
      <path
         d="m 51077,30373 167,262 166,-262"
         id="path258" />
      <path
         d="m 51458,30921 h 381"
         id="path260" />
      <path
         d="m 51958,30373 v 405 l 24,48 24,23 47,24 h 96 l 47,-24 24,-23 24,-48 v -405"
         id="path262" />
      <path
         d="m 52482,30540 v 500"
         id="path264" />
      <path
         d="m 52482,30564 48,-24 h 95 l 47,24 24,23 24,48 v 143 l -24,48 -24,23 -47,24 h -95 l -48,-24"
         id="path266" />
    </g>
  </g>
  <g
     style="fill:#0f0f0f;fill-opacity:0;stroke:#0f0f0f;stroke-width:62.5197;stroke-linecap:round;stroke-linejoin:round;stroke-opacity:1"
     id="g272"
     transform="translate(-33970,-23470)" />
  <g
     style="fill:#0f0f0f;fill-opacity:0;stroke:#0f0f0f;stroke-width:60;stroke-linecap:round;stroke-linejoin:round;stroke-opacity:1"
     id="g294"
     transform="translate(-33970,-23470)">
    <text
       x="51000"
       y="31897.48"
       textLength="1655.2362"
       font-size="666.654px"
       lengthAdjust="spacingAndGlyphs"
       text-anchor="start"
       opacity="0"
       id="text274">X_Ri</text>
    <g
       class="stroked-text"
       id="g292">
      <desc
         id="desc276">X_Ri</desc>
      <path
         d="m 51101,31373 333,500"
         id="path278" />
      <path
         d="m 51434,31373 -333,500"
         id="path280" />
      <path
         d="m 51506,31921 h 381"
         id="path282" />
      <path
         d="m 52291,31873 -166,-238"
         id="path284" />
      <path
         d="m 52006,31873 v -500 h 190 l 48,24 24,24 23,47 v 72 l -23,47 -24,24 -48,24 h -190"
         id="path286" />
      <path
         d="m 52506,31873 v -333"
         id="path288" />
      <path
         d="m 52506,31373 -24,24 24,24 24,-24 -24,-24 v 48"
         id="path290" />
    </g>
  </g>
  <g
     style="fill:#0f0f0f;fill-opacity:0;stroke:#0f0f0f;stroke-width:62.5197;stroke-linecap:round;stroke-linejoin:round;stroke-opacity:1"
     id="g296"
     transform="translate(-33970,-23470)" />
  <g
     style="fill:#0f0f0f;fill-opacity:0;stroke:#0f0f0f;stroke-width:60;stroke-linecap:round;stroke-linejoin:round;stroke-opacity:1"
     id="g314"
     transform="translate(-33970,-23470)">
    <text
       x="51000"
       y="29897.48"
       textLength="1750.4724"
       font-size="666.654px"
       lengthAdjust="spacingAndGlyphs"
       text-anchor="start"
       opacity="0"
       id="text298">X_Le</text>
    <g
       class="stroked-text"
       id="g312">
      <desc
         id="desc300">X_Le</desc>
      <path
         d="m 51101,29373 333,500"
         id="path302" />
      <path
         d="m 51434,29373 -333,500"
         id="path304" />
      <path
         d="m 51506,29921 h 381"
         id="path306" />
      <path
         d="m 52244,29873 h -238 v -500"
         id="path308" />
      <path
         d="m 52601,29849 -48,24 h -95 l -48,-24 -23,-47 v -191 l 23,-47 48,-24 h 95 l 48,24 24,47 v 48 l -238,47"
         id="path310" />
    </g>
  </g>
  <g
     style="fill:#0f0f0f;fill-opacity:0;stroke:#0f0f0f;stroke-width:62.5197;stroke-linecap:round;stroke-linejoin:round;stroke-opacity:1"
     id="g316"
     transform="translate(-33970,-23470)" />
  <g
     style="fill:#0f0f0f;fill-opacity:0;stroke:#0f0f0f;stroke-width:60;stroke-linecap:round;stroke-linejoin:round;stroke-opacity:1"
     id="g318"
     transform="translate(-33970,-23470)" />
  <g
     style="fill:#0000c2;fill-opacity:0;stroke:#0000c2;stroke-width:60;stroke-linecap:round;stroke-linejoin:round;stroke-opacity:1"
     id="g384"
     transform="translate(-33970,-23470)">
    <text
       x="43500"
       y="39397.48"
       textLength="8821.8896"
       font-size="666.654px"
       lengthAdjust="spacingAndGlyphs"
       text-anchor="end"
       opacity="0"
       id="text320">Resistive Touch Screen</text>
    <g
       class="stroked-text"
       id="g382">
      <desc
         id="desc322">Resistive Touch Screen</desc>
      <path
         d="m 35112,39373 -166,-238"
         id="path324" />
      <path
         d="m 34827,39373 v -500 h 190 l 48,24 24,24 23,47 v 72 l -23,47 -24,24 -48,24 h -190"
         id="path326" />
      <path
         d="m 35517,39349 -47,24 h -96 l -47,-24 -24,-47 v -191 l 24,-47 47,-24 h 96 l 47,24 24,47 v 48 l -238,47"
         id="path328" />
      <path
         d="m 35731,39349 48,24 h 95 l 48,-24 24,-47 v -24 l -24,-48 -48,-24 h -71 l -48,-23 -24,-48 v -24 l 24,-47 48,-24 h 71 l 48,24"
         id="path330" />
      <path
         d="m 36160,39373 v -333"
         id="path332" />
      <path
         d="m 36160,38873 -24,24 24,24 24,-24 -24,-24 v 48"
         id="path334" />
      <path
         d="m 36374,39349 48,24 h 95 l 48,-24 24,-47 v -24 l -24,-48 -48,-24 h -71 l -48,-23 -24,-48 v -24 l 24,-47 48,-24 h 71 l 48,24"
         id="path336" />
      <path
         d="m 36731,39040 h 191"
         id="path338" />
      <path
         d="m 36803,38873 v 429 l 24,47 47,24 h 48"
         id="path340" />
      <path
         d="m 37089,39373 v -333"
         id="path342" />
      <path
         d="m 37089,38873 -24,24 24,24 23,-24 -23,-24 v 48"
         id="path344" />
      <path
         d="m 37279,39040 119,333 119,-333"
         id="path346" />
      <path
         d="m 37898,39349 -48,24 h -95 l -47,-24 -24,-47 v -191 l 24,-47 47,-24 h 95 l 48,24 24,47 v 48 l -238,47"
         id="path348" />
      <path
         d="m 38446,38873 h 285"
         id="path350" />
      <path
         d="m 38589,39373 v -500"
         id="path352" />
      <path
         d="m 38970,39373 -48,-24 -24,-23 -24,-48 v -143 l 24,-48 24,-23 48,-24 h 71 l 48,24 23,23 24,48 v 143 l -24,48 -23,23 -48,24 h -71"
         id="path354" />
      <path
         d="m 39565,39040 v 333"
         id="path356" />
      <path
         d="m 39350,39040 v 262 l 24,47 48,24 h 71 l 48,-24 24,-23"
         id="path358" />
      <path
         d="m 40017,39349 -47,24 h -96 l -47,-24 -24,-23 -24,-48 v -143 l 24,-48 24,-23 47,-24 h 96 l 47,24"
         id="path360" />
      <path
         d="m 40231,39373 v -500"
         id="path362" />
      <path
         d="m 40446,39373 v -262 l -24,-47 -48,-24 h -71 l -48,24 -24,23"
         id="path364" />
      <path
         d="m 41041,39349 71,24 h 119 l 48,-24 24,-23 24,-48 v -48 l -24,-47 -24,-24 -48,-24 -95,-24 -47,-24 -24,-23 -24,-48 v -48 l 24,-47 24,-24 47,-24 h 119 l 72,24"
         id="path366" />
      <path
         d="m 41755,39349 -47,24 h -96 l -47,-24 -24,-23 -24,-48 v -143 l 24,-48 24,-23 47,-24 h 96 l 47,24"
         id="path368" />
      <path
         d="m 41970,39373 v -333"
         id="path370" />
      <path
         d="m 41970,39135 23,-48 24,-23 48,-24 h 47"
         id="path372" />
      <path
         d="m 42470,39349 -48,24 h -95 l -48,-24 -24,-47 v -191 l 24,-47 48,-24 h 95 l 48,24 23,47 v 48 l -238,47"
         id="path374" />
      <path
         d="m 42898,39349 -48,24 h -95 l -47,-24 -24,-47 v -191 l 24,-47 47,-24 h 95 l 48,24 24,47 v 48 l -238,47"
         id="path376" />
      <path
         d="m 43136,39040 v 333"
         id="path378" />
      <path
         d="m 43136,39087 24,-23 48,-24 h 71 l 48,24 23,47 v 262"
         id="path380" />
    </g>
  </g>
  <g
     style="fill:#0000c2;fill-opacity:0;stroke:#0000c2;stroke-width:60;stroke-linecap:round;stroke-linejoin:round;stroke-dasharray:300, 300;stroke-opacity:1"
     id="g388"
     transform="translate(-33970,-23470)">
    <path
       d="M 34500,38000 V 26000"
       id="path386" />
  </g>
  <g
     style="fill:#0000c2;fill-opacity:0;stroke:#0000c2;stroke-width:60;stroke-linecap:round;stroke-linejoin:round;stroke-opacity:1"
     id="g390"
     transform="translate(-33970,-23470)" />
  <g
     style="fill:#0000c2;fill-opacity:0;stroke:#0000c2;stroke-width:60;stroke-linecap:round;stroke-linejoin:round;stroke-dasharray:300, 300;stroke-opacity:1"
     id="g394"
     transform="translate(-33970,-23470)">
    <path
       d="M 34500,26000 H 47500"
       id="path392" />
  </g>
  <g
     style="fill:#0000c2;fill-opacity:0;stroke:#0000c2;stroke-width:60;stroke-linecap:round;stroke-linejoin:round;stroke-opacity:1"
     id="g396"
     transform="translate(-33970,-23470)" />
  <g
     style="fill:#0000c2;fill-opacity:0;stroke:#0000c2;stroke-width:60;stroke-linecap:round;stroke-linejoin:round;stroke-dasharray:300, 300;stroke-opacity:1"
     id="g400"
     transform="translate(-33970,-23470)">
    <path
       d="M 47500,38000 H 34500"
       id="path398" />
  </g>
  <g
     style="fill:#0000c2;fill-opacity:0;stroke:#0000c2;stroke-width:60;stroke-linecap:round;stroke-linejoin:round;stroke-opacity:1"
     id="g402"
     transform="translate(-33970,-23470)" />
  <g
     style="fill:#0000c2;fill-opacity:0;stroke:#0000c2;stroke-width:60;stroke-linecap:round;stroke-linejoin:round;stroke-dasharray:300, 300;stroke-opacity:1"
     id="g406"
     transform="translate(-33970,-23470)">
    <path
       d="M 47500,26000 V 38000"
       id="path404" />
  </g>
  <g
     style="fill:#0000c2;fill-opacity:0;stroke:#0000c2;stroke-width:60;stroke-linecap:round;stroke-linejoin:round;stroke-opacity:1"
     id="g408"
     transform="translate(-33970,-23470)" />
  <g
     style="fill:#009600;fill-opacity:0;stroke:#009600;stroke-width:60;stroke-linecap:round;stroke-linejoin:round;stroke-opacity:1"
     id="g446"
     transform="translate(-33970,-23470)">
    <path
       d="M 36000,32000 H 34000"
       id="path410" />
    <path
       d="m 41000,32000 v 2000"
       id="path412" />
    <path
       d="M 46000,32000 H 56000"
       id="path414" />
    <path
       d="m 41000,32000 h 2000"
       id="path416" />
    <path
       d="M 34000,23500 H 49000"
       id="path418" />
    <path
       d="m 34000,23500 v 8500"
       id="path420" />
    <path
       d="m 41000,38500 h 7500"
       id="path422" />
    <path
       d="m 48500,33000 v 5500"
       id="path424" />
    <path
       d="m 48500,31000 h 6000"
       id="path426" />
    <path
       d="m 48500,33000 h 6000"
       id="path428" />
    <path
       d="m 41000,37000 v 1500"
       id="path430" />
    <path
       d="m 41000,30000 v 2000"
       id="path432" />
    <path
       d="m 41000,25000 h 7500"
       id="path434" />
    <path
       d="m 39000,32000 h 2000"
       id="path436" />
    <path
       d="m 48500,25000 v 6000"
       id="path438" />
    <path
       d="m 49000,23500 v 6500"
       id="path440" />
    <path
       d="M 41000,27000 V 25000"
       id="path442" />
    <path
       d="m 49000,30000 h 7000"
       id="path444" />
  </g>
  <g
     style="fill:#009600;fill-opacity:1;stroke:#009600;stroke-width:60;stroke-linecap:round;stroke-linejoin:round;stroke-opacity:1"
     id="g450"
     transform="translate(-33970,-23470)">
    <circle
       cx="41000"
       cy="32000"
       r="180"
       id="circle448" />
  </g>
  <metadata
     id="metadata1273">
    <rdf:RDF>
      <cc:Work
         rdf:about="">
        <dc:title>SVG Picture created as versuchsaufbau.svg date 2022/02/02 17:08:01 </dc:title>
      </cc:Work>
    </rdf:RDF>
  </metadata>
</svg>
