<svg width="384" height="268" xmlns="http://www.w3.org/2000/svg" xmlns:xlink="http://www.w3.org/1999/xlink" overflow="hidden"><defs><clipPath id="clip0"><rect x="88" y="192" width="384" height="268"/></clipPath><clipPath id="clip1"><rect x="88" y="192" width="383" height="267"/></clipPath></defs><g clip-path="url(#clip0)" transform="translate(-88 -192)"><g clip-path="url(#clip1)"><path d="M610.33 528.395 643.772 528.395 643.772 541.772 610.33 541.772Z" stroke="#840000" stroke-width="1.67214" stroke-linecap="round" stroke-linejoin="round" stroke-miterlimit="4" stroke-opacity="1" fill="none" fill-rule="nonzero" transform="matrix(1.00215 0 0 1 -481.139 -200.45)"/><path d="M643.772 535.084 652.133 535.084" stroke="#840000" stroke-width="1.00328" stroke-linecap="round" stroke-linejoin="round" stroke-miterlimit="4" stroke-opacity="1" fill="none" fill-rule="nonzero" transform="matrix(1.00215 0 0 1 -481.139 -200.45)"/><path d="M610.33 535.084 601.969 535.084" stroke="#840000" stroke-width="1.00328" stroke-linecap="round" stroke-linejoin="round" stroke-miterlimit="4" stroke-opacity="1" fill="none" fill-rule="nonzero" transform="matrix(1.00215 0 0 1 -481.139 -200.45)"/><path d="M617.286 504.249 614.51 500.27" stroke="#006464" stroke-width="1.00328" stroke-linecap="round" stroke-linejoin="round" stroke-miterlimit="4" stroke-opacity="1" fill="none" fill-rule="nonzero" transform="matrix(1.00215 0 0 1 -481.139 -200.45)"/><path d="M612.503 504.249 612.503 495.889 615.697 495.889 616.5 496.29 616.884 496.675 617.286 497.477 617.286 498.664 616.884 499.467 616.5 499.868 615.697 500.27 612.503 500.27" stroke="#006464" stroke-width="1.00328" stroke-linecap="round" stroke-linejoin="round" stroke-miterlimit="4" stroke-opacity="1" fill="none" fill-rule="nonzero" transform="matrix(1.00215 0 0 1 -481.139 -200.45)"/><path d="M618.874 505.035 625.245 505.035" stroke="#006464" stroke-width="1.00328" stroke-linecap="round" stroke-linejoin="round" stroke-miterlimit="4" stroke-opacity="1" fill="none" fill-rule="nonzero" transform="matrix(1.00215 0 0 1 -481.139 -200.45)"/><path d="M626.449 504.249 630.83 498.664" stroke="#006464" stroke-width="1.00328" stroke-linecap="round" stroke-linejoin="round" stroke-miterlimit="4" stroke-opacity="1" fill="none" fill-rule="nonzero" transform="matrix(1.00215 0 0 1 -481.139 -200.45)"/><path d="M626.449 498.664 630.83 504.249" stroke="#006464" stroke-width="1.00328" stroke-linecap="round" stroke-linejoin="round" stroke-miterlimit="4" stroke-opacity="1" fill="none" fill-rule="nonzero" transform="matrix(1.00215 0 0 1 -481.139 -200.45)"/><path d="M635.211 504.249 634.408 503.848 634.007 503.045 634.007 495.889" stroke="#006464" stroke-width="1.00328" stroke-linecap="round" stroke-linejoin="round" stroke-miterlimit="4" stroke-opacity="1" fill="none" fill-rule="nonzero" transform="matrix(1.00215 0 0 1 -481.139 -200.45)"/><path d="M641.582 503.848 640.779 504.249 639.191 504.249 638.388 503.848 637.987 503.045 637.987 499.868 638.388 499.066 639.191 498.664 640.779 498.664 641.582 499.066 641.966 499.868 641.966 500.654 637.987 501.457" stroke="#006464" stroke-width="1.00328" stroke-linecap="round" stroke-linejoin="round" stroke-miterlimit="4" stroke-opacity="1" fill="none" fill-rule="nonzero" transform="matrix(1.00215 0 0 1 -481.139 -200.45)"/><path d="M629.626 519.466 626.85 515.486" stroke="#006464" stroke-width="1.00328" stroke-linecap="round" stroke-linejoin="round" stroke-miterlimit="4" stroke-opacity="1" fill="none" fill-rule="nonzero" transform="matrix(1.00215 0 0 1 -481.139 -200.45)"/><path d="M624.861 519.466 624.861 511.105 628.038 511.105 628.84 511.506 629.225 511.891 629.626 512.694 629.626 513.881 629.225 514.683 628.84 515.085 628.038 515.486 624.861 515.486" stroke="#006464" stroke-width="1.00328" stroke-linecap="round" stroke-linejoin="round" stroke-miterlimit="4" stroke-opacity="1" fill="none" fill-rule="nonzero" transform="matrix(1.00215 0 0 1 -481.139 -200.45)"/><path d="M678.887 459.837 692.264 459.837 692.264 493.28 678.887 493.28Z" stroke="#840000" stroke-width="1.67214" stroke-linecap="round" stroke-linejoin="round" stroke-miterlimit="4" stroke-opacity="1" fill="none" fill-rule="nonzero" transform="matrix(1.00215 0 0 1 -481.139 -200.45)"/><path d="M685.576 459.837 685.576 451.477" stroke="#840000" stroke-width="1.00328" stroke-linecap="round" stroke-linejoin="round" stroke-miterlimit="4" stroke-opacity="1" fill="none" fill-rule="nonzero" transform="matrix(1.00215 0 0 1 -481.139 -200.45)"/><path d="M685.576 493.28 685.576 501.641" stroke="#840000" stroke-width="1.00328" stroke-linecap="round" stroke-linejoin="round" stroke-miterlimit="4" stroke-opacity="1" fill="none" fill-rule="nonzero" transform="matrix(1.00215 0 0 1 -481.139 -200.45)"/><path d="M704.555 472.646 701.779 468.666" stroke="#006464" stroke-width="1.00328" stroke-linecap="round" stroke-linejoin="round" stroke-miterlimit="4" stroke-opacity="1" fill="none" fill-rule="nonzero" transform="matrix(1.00215 0 0 1 -481.139 -200.45)"/><path d="M699.789 472.646 699.789 464.285 702.966 464.285 703.769 464.687 704.17 465.071 704.555 465.874 704.555 467.061 704.17 467.864 703.769 468.265 702.966 468.666 699.789 468.666" stroke="#006464" stroke-width="1.00328" stroke-linecap="round" stroke-linejoin="round" stroke-miterlimit="4" stroke-opacity="1" fill="none" fill-rule="nonzero" transform="matrix(1.00215 0 0 1 -481.139 -200.45)"/><path d="M706.16 473.432 712.531 473.432" stroke="#006464" stroke-width="1.00328" stroke-linecap="round" stroke-linejoin="round" stroke-miterlimit="4" stroke-opacity="1" fill="none" fill-rule="nonzero" transform="matrix(1.00215 0 0 1 -481.139 -200.45)"/><path d="M713.718 467.061 715.708 472.646" stroke="#006464" stroke-width="1.00328" stroke-linecap="round" stroke-linejoin="round" stroke-miterlimit="4" stroke-opacity="1" fill="none" fill-rule="nonzero" transform="matrix(1.00215 0 0 1 -481.139 -200.45)"/><path d="M717.698 467.061 715.708 472.646 714.922 474.636 714.52 475.037 713.718 475.422" stroke="#006464" stroke-width="1.00328" stroke-linecap="round" stroke-linejoin="round" stroke-miterlimit="4" stroke-opacity="1" fill="none" fill-rule="nonzero" transform="matrix(1.00215 0 0 1 -481.139 -200.45)"/><path d="M724.47 467.061 724.47 472.646" stroke="#006464" stroke-width="1.00328" stroke-linecap="round" stroke-linejoin="round" stroke-miterlimit="4" stroke-opacity="1" fill="none" fill-rule="nonzero" transform="matrix(1.00215 0 0 1 -481.139 -200.45)"/><path d="M720.891 467.061 720.891 471.442 721.276 472.245 722.078 472.646 723.282 472.646 724.068 472.245 724.47 471.843" stroke="#006464" stroke-width="1.00328" stroke-linecap="round" stroke-linejoin="round" stroke-miterlimit="4" stroke-opacity="1" fill="none" fill-rule="nonzero" transform="matrix(1.00215 0 0 1 -481.139 -200.45)"/><path d="M728.449 467.061 728.449 475.422" stroke="#006464" stroke-width="1.00328" stroke-linecap="round" stroke-linejoin="round" stroke-miterlimit="4" stroke-opacity="1" fill="none" fill-rule="nonzero" transform="matrix(1.00215 0 0 1 -481.139 -200.45)"/><path d="M728.449 467.462 729.252 467.061 730.841 467.061 731.643 467.462 732.028 467.864 732.429 468.666 732.429 471.041 732.028 471.843 731.643 472.245 730.841 472.646 729.252 472.646 728.449 472.245" stroke="#006464" stroke-width="1.00328" stroke-linecap="round" stroke-linejoin="round" stroke-miterlimit="4" stroke-opacity="1" fill="none" fill-rule="nonzero" transform="matrix(1.00215 0 0 1 -481.139 -200.45)"/><path d="M704.555 487.862 701.779 483.883" stroke="#006464" stroke-width="1.00328" stroke-linecap="round" stroke-linejoin="round" stroke-miterlimit="4" stroke-opacity="1" fill="none" fill-rule="nonzero" transform="matrix(1.00215 0 0 1 -481.139 -200.45)"/><path d="M699.789 487.862 699.789 479.502 702.966 479.502 703.769 479.903 704.17 480.288 704.555 481.09 704.555 482.277 704.17 483.08 703.769 483.481 702.966 483.883 699.789 483.883" stroke="#006464" stroke-width="1.00328" stroke-linecap="round" stroke-linejoin="round" stroke-miterlimit="4" stroke-opacity="1" fill="none" fill-rule="nonzero" transform="matrix(1.00215 0 0 1 -481.139 -200.45)"/><path d="M727.379 528.395 760.822 528.395 760.822 541.772 727.379 541.772Z" stroke="#840000" stroke-width="1.67214" stroke-linecap="round" stroke-linejoin="round" stroke-miterlimit="4" stroke-opacity="1" fill="none" fill-rule="nonzero" transform="matrix(1.00215 0 0 1 -481.139 -200.45)"/><path d="M760.822 535.084 769.183 535.084" stroke="#840000" stroke-width="1.00328" stroke-linecap="round" stroke-linejoin="round" stroke-miterlimit="4" stroke-opacity="1" fill="none" fill-rule="nonzero" transform="matrix(1.00215 0 0 1 -481.139 -200.45)"/><path d="M727.379 535.084 719.018 535.084" stroke="#840000" stroke-width="1.00328" stroke-linecap="round" stroke-linejoin="round" stroke-miterlimit="4" stroke-opacity="1" fill="none" fill-rule="nonzero" transform="matrix(1.00215 0 0 1 -481.139 -200.45)"/><path d="M738.917 504.249 736.124 500.27" stroke="#006464" stroke-width="1.00328" stroke-linecap="round" stroke-linejoin="round" stroke-miterlimit="4" stroke-opacity="1" fill="none" fill-rule="nonzero" transform="matrix(1.00215 0 0 1 -481.139 -200.45)"/><path d="M734.135 504.249 734.135 495.889 737.328 495.889 738.114 496.29 738.516 496.675 738.917 497.477 738.917 498.664 738.516 499.467 738.114 499.868 737.328 500.27 734.135 500.27" stroke="#006464" stroke-width="1.00328" stroke-linecap="round" stroke-linejoin="round" stroke-miterlimit="4" stroke-opacity="1" fill="none" fill-rule="nonzero" transform="matrix(1.00215 0 0 1 -481.139 -200.45)"/><path d="M740.505 505.035 746.876 505.035" stroke="#006464" stroke-width="1.00328" stroke-linecap="round" stroke-linejoin="round" stroke-miterlimit="4" stroke-opacity="1" fill="none" fill-rule="nonzero" transform="matrix(1.00215 0 0 1 -481.139 -200.45)"/><path d="M748.866 504.249 748.866 498.664" stroke="#006464" stroke-width="1.00328" stroke-linecap="round" stroke-linejoin="round" stroke-miterlimit="4" stroke-opacity="1" fill="none" fill-rule="nonzero" transform="matrix(1.00215 0 0 1 -481.139 -200.45)"/><path d="M748.866 500.27 749.267 499.467 749.669 499.066 750.455 498.664 751.257 498.664" stroke="#006464" stroke-width="1.00328" stroke-linecap="round" stroke-linejoin="round" stroke-miterlimit="4" stroke-opacity="1" fill="none" fill-rule="nonzero" transform="matrix(1.00215 0 0 1 -481.139 -200.45)"/><path d="M754.05 504.249 754.05 498.664" stroke="#006464" stroke-width="1.00328" stroke-linecap="round" stroke-linejoin="round" stroke-miterlimit="4" stroke-opacity="1" fill="none" fill-rule="nonzero" transform="matrix(1.00215 0 0 1 -481.139 -200.45)"/><path d="M754.05 495.889 753.648 496.29 754.05 496.675 754.451 496.29 754.05 495.889 754.05 496.675" stroke="#006464" stroke-width="1.00328" stroke-linecap="round" stroke-linejoin="round" stroke-miterlimit="4" stroke-opacity="1" fill="none" fill-rule="nonzero" transform="matrix(1.00215 0 0 1 -481.139 -200.45)"/><path d="M746.676 519.466 743.9 515.486" stroke="#006464" stroke-width="1.00328" stroke-linecap="round" stroke-linejoin="round" stroke-miterlimit="4" stroke-opacity="1" fill="none" fill-rule="nonzero" transform="matrix(1.00215 0 0 1 -481.139 -200.45)"/><path d="M741.91 519.466 741.91 511.105 745.087 511.105 745.89 511.506 746.274 511.891 746.676 512.694 746.676 513.881 746.274 514.683 745.89 515.085 745.087 515.486 741.91 515.486" stroke="#006464" stroke-width="1.00328" stroke-linecap="round" stroke-linejoin="round" stroke-miterlimit="4" stroke-opacity="1" fill="none" fill-rule="nonzero" transform="matrix(1.00215 0 0 1 -481.139 -200.45)"/><path d="M936.396 535.084 936.396 543.444 944.757 543.444 936.396 551.805 928.036 543.444 936.396 543.444" stroke="#840000" stroke-width="1.00328" stroke-linecap="round" stroke-linejoin="round" stroke-miterlimit="4" stroke-opacity="1" fill="none" fill-rule="nonzero" transform="matrix(1.00215 0 0 1 -481.139 -200.45)"/><path d="M930.025 564.346 929.223 563.945 928.036 563.945 926.832 564.346 926.029 565.132 925.644 565.934 925.243 567.523 925.243 568.71 925.644 570.315 926.029 571.101 926.832 571.904 928.036 572.305 928.821 572.305 930.025 571.904 930.41 571.503 930.41 568.71 928.821 568.71" stroke="#006464" stroke-width="1.00328" stroke-linecap="round" stroke-linejoin="round" stroke-miterlimit="4" stroke-opacity="1" fill="none" fill-rule="nonzero" transform="matrix(1.00215 0 0 1 -481.139 -200.45)"/><path d="M934.005 572.305 934.005 563.945 938.771 572.305 938.771 563.945" stroke="#006464" stroke-width="1.00328" stroke-linecap="round" stroke-linejoin="round" stroke-miterlimit="4" stroke-opacity="1" fill="none" fill-rule="nonzero" transform="matrix(1.00215 0 0 1 -481.139 -200.45)"/><path d="M942.75 572.305 942.75 563.945 944.757 563.945 945.944 564.346 946.747 565.132 947.131 565.934 947.533 567.523 947.533 568.71 947.131 570.315 946.747 571.101 945.944 571.904 944.757 572.305 942.75 572.305" stroke="#006464" stroke-width="1.00328" stroke-linecap="round" stroke-linejoin="round" stroke-miterlimit="4" stroke-opacity="1" fill="none" fill-rule="nonzero" transform="matrix(1.00215 0 0 1 -481.139 -200.45)"/><path d="M931.38 493.28 936.396 484.919" stroke="#840000" stroke-width="1.00328" stroke-linecap="round" stroke-linejoin="round" stroke-miterlimit="4" stroke-opacity="1" fill="none" fill-rule="nonzero" transform="matrix(1.00215 0 0 1 -481.139 -200.45)"/><path d="M936.396 501.641 936.396 484.919" stroke="#840000" stroke-width="1.00328" stroke-linecap="round" stroke-linejoin="round" stroke-miterlimit="4" stroke-opacity="1" fill="none" fill-rule="nonzero" transform="matrix(1.00215 0 0 1 -481.139 -200.45)"/><path d="M936.396 484.919 941.413 493.28" stroke="#840000" stroke-width="1.00328" stroke-linecap="round" stroke-linejoin="round" stroke-miterlimit="4" stroke-opacity="1" fill="none" fill-rule="nonzero" transform="matrix(1.00215 0 0 1 -481.139 -200.45)"/><path d="M925.644 468.783 932.015 468.783" stroke="#006464" stroke-width="1.00328" stroke-linecap="round" stroke-linejoin="round" stroke-miterlimit="4" stroke-opacity="1" fill="none" fill-rule="nonzero" transform="matrix(1.00215 0 0 1 -481.139 -200.45)"/><path d="M928.821 471.977 928.821 465.606" stroke="#006464" stroke-width="1.00328" stroke-linecap="round" stroke-linejoin="round" stroke-miterlimit="4" stroke-opacity="1" fill="none" fill-rule="nonzero" transform="matrix(1.00215 0 0 1 -481.139 -200.45)"/><path d="M939.975 463.616 935.995 463.616 935.594 467.596 935.995 467.195 936.781 466.793 938.771 466.793 939.573 467.195 939.975 467.596 940.376 468.382 940.376 470.372 939.975 471.174 939.573 471.576 938.771 471.977 936.781 471.977 935.995 471.576 935.594 471.174" stroke="#006464" stroke-width="1.00328" stroke-linecap="round" stroke-linejoin="round" stroke-miterlimit="4" stroke-opacity="1" fill="none" fill-rule="nonzero" transform="matrix(1.00215 0 0 1 -481.139 -200.45)"/><path d="M942.75 463.616 945.543 471.977 948.335 463.616" stroke="#006464" stroke-width="1.00328" stroke-linecap="round" stroke-linejoin="round" stroke-miterlimit="4" stroke-opacity="1" fill="none" fill-rule="nonzero" transform="matrix(1.00215 0 0 1 -481.139 -200.45)"/><path d="M921.765 520.352 925.745 520.352" stroke="#840000" stroke-width="1.00328" stroke-linecap="round" stroke-linejoin="round" stroke-miterlimit="4" stroke-opacity="1" fill="none" fill-rule="nonzero" transform="matrix(1.00215 0 0 1 -481.139 -200.45)"/><path d="M920.962 522.726 923.755 514.366 926.531 522.726" stroke="#840000" stroke-width="1.00328" stroke-linecap="round" stroke-linejoin="round" stroke-miterlimit="4" stroke-opacity="1" fill="none" fill-rule="nonzero" transform="matrix(1.00215 0 0 1 -481.139 -200.45)"/><path d="M929.323 522.726 929.323 514.366 931.313 514.366 932.517 514.767 933.303 515.57 933.704 516.356 934.105 517.961 934.105 519.148 933.704 520.737 933.303 521.539 932.517 522.342 931.313 522.726 929.323 522.726" stroke="#840000" stroke-width="1.00328" stroke-linecap="round" stroke-linejoin="round" stroke-miterlimit="4" stroke-opacity="1" fill="none" fill-rule="nonzero" transform="matrix(1.00215 0 0 1 -481.139 -200.45)"/><path d="M942.466 521.941 942.065 522.342 940.878 522.726 940.075 522.726 938.888 522.342 938.085 521.539 937.684 520.737 937.282 519.148 937.282 517.961 937.684 516.356 938.085 515.57 938.888 514.767 940.075 514.366 940.878 514.366 942.065 514.767 942.466 515.168" stroke="#840000" stroke-width="1.00328" stroke-linecap="round" stroke-linejoin="round" stroke-miterlimit="4" stroke-opacity="1" fill="none" fill-rule="nonzero" transform="matrix(1.00215 0 0 1 -481.139 -200.45)"/><path d="M911.314 518.362 917.585 525.679 947.745 525.679 947.745 518.362 947.745 511.045 917.585 511.045Z" stroke="#840000" stroke-width="1.00328" stroke-linecap="round" stroke-linejoin="round" stroke-miterlimit="4" stroke-opacity="1" fill="none" fill-rule="nonzero" transform="matrix(1.00215 0 0 1 -481.139 -200.45)"/><path d="M856.869 545.702 856.869 549.681" stroke="#0F0F0F" stroke-width="1.00328" stroke-linecap="round" stroke-linejoin="round" stroke-miterlimit="4" stroke-opacity="1" fill="none" fill-rule="nonzero" transform="matrix(1.00215 0 0 1 -481.139 -200.45)"/><path d="M854.077 541.321 856.869 545.702 859.645 541.321" stroke="#0F0F0F" stroke-width="1.00328" stroke-linecap="round" stroke-linejoin="round" stroke-miterlimit="4" stroke-opacity="1" fill="none" fill-rule="nonzero" transform="matrix(1.00215 0 0 1 -481.139 -200.45)"/><path d="M860.448 550.484 866.819 550.484" stroke="#0F0F0F" stroke-width="1.00328" stroke-linecap="round" stroke-linejoin="round" stroke-miterlimit="4" stroke-opacity="1" fill="none" fill-rule="nonzero" transform="matrix(1.00215 0 0 1 -481.139 -200.45)"/><path d="M872.788 549.681 868.808 549.681 868.808 541.321" stroke="#0F0F0F" stroke-width="1.00328" stroke-linecap="round" stroke-linejoin="round" stroke-miterlimit="4" stroke-opacity="1" fill="none" fill-rule="nonzero" transform="matrix(1.00215 0 0 1 -481.139 -200.45)"/><path d="M876.768 549.681 875.982 549.28 875.581 548.895 875.179 548.093 875.179 545.702 875.581 544.899 875.982 544.514 876.768 544.113 877.972 544.113 878.758 544.514 879.159 544.899 879.56 545.702 879.56 548.093 879.159 548.895 878.758 549.28 877.972 549.681 876.768 549.681" stroke="#0F0F0F" stroke-width="1.00328" stroke-linecap="round" stroke-linejoin="round" stroke-miterlimit="4" stroke-opacity="1" fill="none" fill-rule="nonzero" transform="matrix(1.00215 0 0 1 -481.139 -200.45)"/><path d="M856.869 512.259 856.869 516.239" stroke="#0F0F0F" stroke-width="1.00328" stroke-linecap="round" stroke-linejoin="round" stroke-miterlimit="4" stroke-opacity="1" fill="none" fill-rule="nonzero" transform="matrix(1.00215 0 0 1 -481.139 -200.45)"/><path d="M854.077 507.878 856.869 512.259 859.645 507.878" stroke="#0F0F0F" stroke-width="1.00328" stroke-linecap="round" stroke-linejoin="round" stroke-miterlimit="4" stroke-opacity="1" fill="none" fill-rule="nonzero" transform="matrix(1.00215 0 0 1 -481.139 -200.45)"/><path d="M860.448 517.041 866.819 517.041" stroke="#0F0F0F" stroke-width="1.00328" stroke-linecap="round" stroke-linejoin="round" stroke-miterlimit="4" stroke-opacity="1" fill="none" fill-rule="nonzero" transform="matrix(1.00215 0 0 1 -481.139 -200.45)"/><path d="M868.808 507.878 868.808 514.65 869.21 515.453 869.611 515.837 870.397 516.239 872.002 516.239 872.788 515.837 873.189 515.453 873.591 514.65 873.591 507.878" stroke="#0F0F0F" stroke-width="1.00328" stroke-linecap="round" stroke-linejoin="round" stroke-miterlimit="4" stroke-opacity="1" fill="none" fill-rule="nonzero" transform="matrix(1.00215 0 0 1 -481.139 -200.45)"/><path d="M877.57 510.67 877.57 519.031" stroke="#0F0F0F" stroke-width="1.00328" stroke-linecap="round" stroke-linejoin="round" stroke-miterlimit="4" stroke-opacity="1" fill="none" fill-rule="nonzero" transform="matrix(1.00215 0 0 1 -481.139 -200.45)"/><path d="M877.57 511.072 878.373 510.67 879.962 510.67 880.747 511.072 881.149 511.456 881.55 512.259 881.55 514.65 881.149 515.453 880.747 515.837 879.962 516.239 878.373 516.239 877.57 515.837" stroke="#0F0F0F" stroke-width="1.00328" stroke-linecap="round" stroke-linejoin="round" stroke-miterlimit="4" stroke-opacity="1" fill="none" fill-rule="nonzero" transform="matrix(1.00215 0 0 1 -481.139 -200.45)"/><path d="M854.478 524.599 860.046 532.96" stroke="#0F0F0F" stroke-width="1.00328" stroke-linecap="round" stroke-linejoin="round" stroke-miterlimit="4" stroke-opacity="1" fill="none" fill-rule="nonzero" transform="matrix(1.00215 0 0 1 -481.139 -200.45)"/><path d="M860.046 524.599 854.478 532.96" stroke="#0F0F0F" stroke-width="1.00328" stroke-linecap="round" stroke-linejoin="round" stroke-miterlimit="4" stroke-opacity="1" fill="none" fill-rule="nonzero" transform="matrix(1.00215 0 0 1 -481.139 -200.45)"/><path d="M861.25 533.763 867.621 533.763" stroke="#0F0F0F" stroke-width="1.00328" stroke-linecap="round" stroke-linejoin="round" stroke-miterlimit="4" stroke-opacity="1" fill="none" fill-rule="nonzero" transform="matrix(1.00215 0 0 1 -481.139 -200.45)"/><path d="M874.377 532.96 871.601 528.98" stroke="#0F0F0F" stroke-width="1.00328" stroke-linecap="round" stroke-linejoin="round" stroke-miterlimit="4" stroke-opacity="1" fill="none" fill-rule="nonzero" transform="matrix(1.00215 0 0 1 -481.139 -200.45)"/><path d="M869.611 532.96 869.611 524.599 872.788 524.599 873.591 525.001 873.992 525.402 874.377 526.188 874.377 527.392 873.992 528.178 873.591 528.579 872.788 528.98 869.611 528.98" stroke="#0F0F0F" stroke-width="1.00328" stroke-linecap="round" stroke-linejoin="round" stroke-miterlimit="4" stroke-opacity="1" fill="none" fill-rule="nonzero" transform="matrix(1.00215 0 0 1 -481.139 -200.45)"/><path d="M877.972 532.96 877.972 527.392" stroke="#0F0F0F" stroke-width="1.00328" stroke-linecap="round" stroke-linejoin="round" stroke-miterlimit="4" stroke-opacity="1" fill="none" fill-rule="nonzero" transform="matrix(1.00215 0 0 1 -481.139 -200.45)"/><path d="M877.972 524.599 877.57 525.001 877.972 525.402 878.373 525.001 877.972 524.599 877.972 525.402" stroke="#0F0F0F" stroke-width="1.00328" stroke-linecap="round" stroke-linejoin="round" stroke-miterlimit="4" stroke-opacity="1" fill="none" fill-rule="nonzero" transform="matrix(1.00215 0 0 1 -481.139 -200.45)"/><path d="M854.478 491.157 860.046 499.517" stroke="#0F0F0F" stroke-width="1.00328" stroke-linecap="round" stroke-linejoin="round" stroke-miterlimit="4" stroke-opacity="1" fill="none" fill-rule="nonzero" transform="matrix(1.00215 0 0 1 -481.139 -200.45)"/><path d="M860.046 491.157 854.478 499.517" stroke="#0F0F0F" stroke-width="1.00328" stroke-linecap="round" stroke-linejoin="round" stroke-miterlimit="4" stroke-opacity="1" fill="none" fill-rule="nonzero" transform="matrix(1.00215 0 0 1 -481.139 -200.45)"/><path d="M861.25 500.32 867.621 500.32" stroke="#0F0F0F" stroke-width="1.00328" stroke-linecap="round" stroke-linejoin="round" stroke-miterlimit="4" stroke-opacity="1" fill="none" fill-rule="nonzero" transform="matrix(1.00215 0 0 1 -481.139 -200.45)"/><path d="M873.591 499.517 869.611 499.517 869.611 491.157" stroke="#0F0F0F" stroke-width="1.00328" stroke-linecap="round" stroke-linejoin="round" stroke-miterlimit="4" stroke-opacity="1" fill="none" fill-rule="nonzero" transform="matrix(1.00215 0 0 1 -481.139 -200.45)"/><path d="M879.56 499.116 878.758 499.517 877.169 499.517 876.367 499.116 875.982 498.33 875.982 495.136 876.367 494.35 877.169 493.949 878.758 493.949 879.56 494.35 879.962 495.136 879.962 495.939 875.982 496.725" stroke="#0F0F0F" stroke-width="1.00328" stroke-linecap="round" stroke-linejoin="round" stroke-miterlimit="4" stroke-opacity="1" fill="none" fill-rule="nonzero" transform="matrix(1.00215 0 0 1 -481.139 -200.45)"/><path d="M587.12 658.37 584.345 654.39" stroke="#0000C2" stroke-width="1.00328" stroke-linecap="round" stroke-linejoin="round" stroke-miterlimit="4" stroke-opacity="1" fill="none" fill-rule="nonzero" transform="matrix(1.00215 0 0 1 -481.139 -200.45)"/><path d="M582.355 658.37 582.355 650.009 585.532 650.009 586.334 650.411 586.736 650.812 587.12 651.598 587.12 652.802 586.736 653.588 586.334 653.989 585.532 654.39 582.355 654.39" stroke="#0000C2" stroke-width="1.00328" stroke-linecap="round" stroke-linejoin="round" stroke-miterlimit="4" stroke-opacity="1" fill="none" fill-rule="nonzero" transform="matrix(1.00215 0 0 1 -481.139 -200.45)"/><path d="M593.893 657.969 593.107 658.37 591.501 658.37 590.716 657.969 590.314 657.183 590.314 653.989 590.716 653.203 591.501 652.802 593.107 652.802 593.893 653.203 594.294 653.989 594.294 654.792 590.314 655.578" stroke="#0000C2" stroke-width="1.00328" stroke-linecap="round" stroke-linejoin="round" stroke-miterlimit="4" stroke-opacity="1" fill="none" fill-rule="nonzero" transform="matrix(1.00215 0 0 1 -481.139 -200.45)"/><path d="M597.471 657.969 598.274 658.37 599.862 658.37 600.665 657.969 601.066 657.183 601.066 656.782 600.665 655.979 599.862 655.578 598.675 655.578 597.872 655.193 597.471 654.39 597.471 653.989 597.872 653.203 598.675 652.802 599.862 652.802 600.665 653.203" stroke="#0000C2" stroke-width="1.00328" stroke-linecap="round" stroke-linejoin="round" stroke-miterlimit="4" stroke-opacity="1" fill="none" fill-rule="nonzero" transform="matrix(1.00215 0 0 1 -481.139 -200.45)"/><path d="M604.644 658.37 604.644 652.802" stroke="#0000C2" stroke-width="1.00328" stroke-linecap="round" stroke-linejoin="round" stroke-miterlimit="4" stroke-opacity="1" fill="none" fill-rule="nonzero" transform="matrix(1.00215 0 0 1 -481.139 -200.45)"/><path d="M604.644 650.009 604.243 650.411 604.644 650.812 605.046 650.411 604.644 650.009 604.644 650.812" stroke="#0000C2" stroke-width="1.00328" stroke-linecap="round" stroke-linejoin="round" stroke-miterlimit="4" stroke-opacity="1" fill="none" fill-rule="nonzero" transform="matrix(1.00215 0 0 1 -481.139 -200.45)"/><path d="M608.223 657.969 609.025 658.37 610.614 658.37 611.417 657.969 611.818 657.183 611.818 656.782 611.417 655.979 610.614 655.578 609.427 655.578 608.624 655.193 608.223 654.39 608.223 653.989 608.624 653.203 609.427 652.802 610.614 652.802 611.417 653.203" stroke="#0000C2" stroke-width="1.00328" stroke-linecap="round" stroke-linejoin="round" stroke-miterlimit="4" stroke-opacity="1" fill="none" fill-rule="nonzero" transform="matrix(1.00215 0 0 1 -481.139 -200.45)"/><path d="M614.192 652.802 617.386 652.802" stroke="#0000C2" stroke-width="1.00328" stroke-linecap="round" stroke-linejoin="round" stroke-miterlimit="4" stroke-opacity="1" fill="none" fill-rule="nonzero" transform="matrix(1.00215 0 0 1 -481.139 -200.45)"/><path d="M615.396 650.009 615.396 657.183 615.798 657.969 616.583 658.37 617.386 658.37" stroke="#0000C2" stroke-width="1.00328" stroke-linecap="round" stroke-linejoin="round" stroke-miterlimit="4" stroke-opacity="1" fill="none" fill-rule="nonzero" transform="matrix(1.00215 0 0 1 -481.139 -200.45)"/><path d="M620.179 658.37 620.179 652.802" stroke="#0000C2" stroke-width="1.00328" stroke-linecap="round" stroke-linejoin="round" stroke-miterlimit="4" stroke-opacity="1" fill="none" fill-rule="nonzero" transform="matrix(1.00215 0 0 1 -481.139 -200.45)"/><path d="M620.179 650.009 619.777 650.411 620.179 650.812 620.563 650.411 620.179 650.009 620.179 650.812" stroke="#0000C2" stroke-width="1.00328" stroke-linecap="round" stroke-linejoin="round" stroke-miterlimit="4" stroke-opacity="1" fill="none" fill-rule="nonzero" transform="matrix(1.00215 0 0 1 -481.139 -200.45)"/><path d="M623.356 652.802 625.345 658.37 627.335 652.802" stroke="#0000C2" stroke-width="1.00328" stroke-linecap="round" stroke-linejoin="round" stroke-miterlimit="4" stroke-opacity="1" fill="none" fill-rule="nonzero" transform="matrix(1.00215 0 0 1 -481.139 -200.45)"/><path d="M633.706 657.969 632.904 658.37 631.315 658.37 630.529 657.969 630.128 657.183 630.128 653.989 630.529 653.203 631.315 652.802 632.904 652.802 633.706 653.203 634.107 653.989 634.107 654.792 630.128 655.578" stroke="#0000C2" stroke-width="1.00328" stroke-linecap="round" stroke-linejoin="round" stroke-miterlimit="4" stroke-opacity="1" fill="none" fill-rule="nonzero" transform="matrix(1.00215 0 0 1 -481.139 -200.45)"/><path d="M642.869 650.009 647.635 650.009" stroke="#0000C2" stroke-width="1.00328" stroke-linecap="round" stroke-linejoin="round" stroke-miterlimit="4" stroke-opacity="1" fill="none" fill-rule="nonzero" transform="matrix(1.00215 0 0 1 -481.139 -200.45)"/><path d="M645.261 658.37 645.261 650.009" stroke="#0000C2" stroke-width="1.00328" stroke-linecap="round" stroke-linejoin="round" stroke-miterlimit="4" stroke-opacity="1" fill="none" fill-rule="nonzero" transform="matrix(1.00215 0 0 1 -481.139 -200.45)"/><path d="M651.631 658.37 650.829 657.969 650.427 657.584 650.026 656.782 650.026 654.39 650.427 653.588 650.829 653.203 651.631 652.802 652.819 652.802 653.621 653.203 654.006 653.588 654.407 654.39 654.407 656.782 654.006 657.584 653.621 657.969 652.819 658.37 651.631 658.37" stroke="#0000C2" stroke-width="1.00328" stroke-linecap="round" stroke-linejoin="round" stroke-miterlimit="4" stroke-opacity="1" fill="none" fill-rule="nonzero" transform="matrix(1.00215 0 0 1 -481.139 -200.45)"/><path d="M661.581 652.802 661.581 658.37" stroke="#0000C2" stroke-width="1.00328" stroke-linecap="round" stroke-linejoin="round" stroke-miterlimit="4" stroke-opacity="1" fill="none" fill-rule="nonzero" transform="matrix(1.00215 0 0 1 -481.139 -200.45)"/><path d="M657.986 652.802 657.986 657.183 658.387 657.969 659.189 658.37 660.377 658.37 661.179 657.969 661.581 657.584" stroke="#0000C2" stroke-width="1.00328" stroke-linecap="round" stroke-linejoin="round" stroke-miterlimit="4" stroke-opacity="1" fill="none" fill-rule="nonzero" transform="matrix(1.00215 0 0 1 -481.139 -200.45)"/><path d="M669.139 657.969 668.353 658.37 666.747 658.37 665.962 657.969 665.56 657.584 665.159 656.782 665.159 654.39 665.56 653.588 665.962 653.203 666.747 652.802 668.353 652.802 669.139 653.203" stroke="#0000C2" stroke-width="1.00328" stroke-linecap="round" stroke-linejoin="round" stroke-miterlimit="4" stroke-opacity="1" fill="none" fill-rule="nonzero" transform="matrix(1.00215 0 0 1 -481.139 -200.45)"/><path d="M672.717 658.37 672.717 650.009" stroke="#0000C2" stroke-width="1.00328" stroke-linecap="round" stroke-linejoin="round" stroke-miterlimit="4" stroke-opacity="1" fill="none" fill-rule="nonzero" transform="matrix(1.00215 0 0 1 -481.139 -200.45)"/><path d="M676.312 658.37 676.312 653.989 675.911 653.203 675.108 652.802 673.921 652.802 673.118 653.203 672.717 653.588" stroke="#0000C2" stroke-width="1.00328" stroke-linecap="round" stroke-linejoin="round" stroke-miterlimit="4" stroke-opacity="1" fill="none" fill-rule="nonzero" transform="matrix(1.00215 0 0 1 -481.139 -200.45)"/><path d="M686.261 657.969 687.449 658.37 689.438 658.37 690.241 657.969 690.642 657.584 691.044 656.782 691.044 655.979 690.642 655.193 690.241 654.792 689.438 654.39 687.85 653.989 687.064 653.588 686.663 653.203 686.261 652.401 686.261 651.598 686.663 650.812 687.064 650.411 687.85 650.009 689.84 650.009 691.044 650.411" stroke="#0000C2" stroke-width="1.00328" stroke-linecap="round" stroke-linejoin="round" stroke-miterlimit="4" stroke-opacity="1" fill="none" fill-rule="nonzero" transform="matrix(1.00215 0 0 1 -481.139 -200.45)"/><path d="M698.2 657.969 697.414 658.37 695.809 658.37 695.023 657.969 694.622 657.584 694.221 656.782 694.221 654.39 694.622 653.588 695.023 653.203 695.809 652.802 697.414 652.802 698.2 653.203" stroke="#0000C2" stroke-width="1.00328" stroke-linecap="round" stroke-linejoin="round" stroke-miterlimit="4" stroke-opacity="1" fill="none" fill-rule="nonzero" transform="matrix(1.00215 0 0 1 -481.139 -200.45)"/><path d="M701.795 658.37 701.795 652.802" stroke="#0000C2" stroke-width="1.00328" stroke-linecap="round" stroke-linejoin="round" stroke-miterlimit="4" stroke-opacity="1" fill="none" fill-rule="nonzero" transform="matrix(1.00215 0 0 1 -481.139 -200.45)"/><path d="M701.795 654.39 702.18 653.588 702.581 653.203 703.384 652.802 704.17 652.802" stroke="#0000C2" stroke-width="1.00328" stroke-linecap="round" stroke-linejoin="round" stroke-miterlimit="4" stroke-opacity="1" fill="none" fill-rule="nonzero" transform="matrix(1.00215 0 0 1 -481.139 -200.45)"/><path d="M710.156 657.969 709.354 658.37 707.765 658.37 706.962 657.969 706.561 657.183 706.561 653.989 706.962 653.203 707.765 652.802 709.354 652.802 710.156 653.203 710.541 653.989 710.541 654.792 706.561 655.578" stroke="#0000C2" stroke-width="1.00328" stroke-linecap="round" stroke-linejoin="round" stroke-miterlimit="4" stroke-opacity="1" fill="none" fill-rule="nonzero" transform="matrix(1.00215 0 0 1 -481.139 -200.45)"/><path d="M717.313 657.969 716.51 658.37 714.922 658.37 714.136 657.969 713.735 657.183 713.735 653.989 714.136 653.203 714.922 652.802 716.51 652.802 717.313 653.203 717.714 653.989 717.714 654.792 713.735 655.578" stroke="#0000C2" stroke-width="1.00328" stroke-linecap="round" stroke-linejoin="round" stroke-miterlimit="4" stroke-opacity="1" fill="none" fill-rule="nonzero" transform="matrix(1.00215 0 0 1 -481.139 -200.45)"/><path d="M721.293 652.802 721.293 658.37" stroke="#0000C2" stroke-width="1.00328" stroke-linecap="round" stroke-linejoin="round" stroke-miterlimit="4" stroke-opacity="1" fill="none" fill-rule="nonzero" transform="matrix(1.00215 0 0 1 -481.139 -200.45)"/><path d="M721.293 653.588 721.694 653.203 722.497 652.802 723.684 652.802 724.486 653.203 724.871 653.989 724.871 658.37" stroke="#0000C2" stroke-width="1.00328" stroke-linecap="round" stroke-linejoin="round" stroke-miterlimit="4" stroke-opacity="1" fill="none" fill-rule="nonzero" transform="matrix(1.00215 0 0 1 -481.139 -200.45)"/><path d="M576.887 635.412 576.887 434.755" stroke="#0000C2" stroke-width="1.00328" stroke-linecap="round" stroke-linejoin="round" stroke-miterlimit="4" stroke-dasharray="5.01641 5.01641" stroke-opacity="1" fill="none" fill-rule="nonzero" transform="matrix(1.00215 0 0 1 -481.139 -200.45)"/><path d="M576.887 434.755 794.265 434.755" stroke="#0000C2" stroke-width="1.00328" stroke-linecap="round" stroke-linejoin="round" stroke-miterlimit="4" stroke-dasharray="5.01641 5.01641" stroke-opacity="1" fill="none" fill-rule="nonzero" transform="matrix(1.00215 0 0 1 -481.139 -200.45)"/><path d="M794.265 635.412 576.887 635.412" stroke="#0000C2" stroke-width="1.00328" stroke-linecap="round" stroke-linejoin="round" stroke-miterlimit="4" stroke-dasharray="5.01641 5.01641" stroke-opacity="1" fill="none" fill-rule="nonzero" transform="matrix(1.00215 0 0 1 -481.139 -200.45)"/><path d="M794.265 434.755 794.265 635.412" stroke="#0000C2" stroke-width="1.00328" stroke-linecap="round" stroke-linejoin="round" stroke-miterlimit="4" stroke-dasharray="5.01641 5.01641" stroke-opacity="1" fill="none" fill-rule="nonzero" transform="matrix(1.00215 0 0 1 -481.139 -200.45)"/><path d="M601.969 535.084 568.526 535.084" stroke="#009600" stroke-width="1.00328" stroke-linecap="round" stroke-linejoin="round" stroke-miterlimit="4" stroke-opacity="1" fill="none" fill-rule="nonzero" transform="matrix(1.00215 0 0 1 -481.139 -200.45)"/><path d="M685.576 535.084 685.576 568.526" stroke="#009600" stroke-width="1.00328" stroke-linecap="round" stroke-linejoin="round" stroke-miterlimit="4" stroke-opacity="1" fill="none" fill-rule="nonzero" transform="matrix(1.00215 0 0 1 -481.139 -200.45)"/><path d="M769.183 535.084 936.396 535.084" stroke="#009600" stroke-width="1.00328" stroke-linecap="round" stroke-linejoin="round" stroke-miterlimit="4" stroke-opacity="1" fill="none" fill-rule="nonzero" transform="matrix(1.00215 0 0 1 -481.139 -200.45)"/><path d="M685.576 535.084 719.018 535.084" stroke="#009600" stroke-width="1.00328" stroke-linecap="round" stroke-linejoin="round" stroke-miterlimit="4" stroke-opacity="1" fill="none" fill-rule="nonzero" transform="matrix(1.00215 0 0 1 -481.139 -200.45)"/><path d="M568.526 392.952 819.347 392.952" stroke="#009600" stroke-width="1.00328" stroke-linecap="round" stroke-linejoin="round" stroke-miterlimit="4" stroke-opacity="1" fill="none" fill-rule="nonzero" transform="matrix(1.00215 0 0 1 -481.139 -200.45)"/><path d="M568.526 392.952 568.526 535.084" stroke="#009600" stroke-width="1.00328" stroke-linecap="round" stroke-linejoin="round" stroke-miterlimit="4" stroke-opacity="1" fill="none" fill-rule="nonzero" transform="matrix(1.00215 0 0 1 -481.139 -200.45)"/><path d="M685.576 643.772 810.986 643.772" stroke="#009600" stroke-width="1.00328" stroke-linecap="round" stroke-linejoin="round" stroke-miterlimit="4" stroke-opacity="1" fill="none" fill-rule="nonzero" transform="matrix(1.00215 0 0 1 -481.139 -200.45)"/><path d="M810.986 551.805 810.986 643.772" stroke="#009600" stroke-width="1.00328" stroke-linecap="round" stroke-linejoin="round" stroke-miterlimit="4" stroke-opacity="1" fill="none" fill-rule="nonzero" transform="matrix(1.00215 0 0 1 -481.139 -200.45)"/><path d="M810.986 518.362 911.314 518.362" stroke="#009600" stroke-width="1.00328" stroke-linecap="round" stroke-linejoin="round" stroke-miterlimit="4" stroke-opacity="1" fill="none" fill-rule="nonzero" transform="matrix(1.00215 0 0 1 -481.139 -200.45)"/><path d="M810.986 551.805 911.314 551.805" stroke="#009600" stroke-width="1.00328" stroke-linecap="round" stroke-linejoin="round" stroke-miterlimit="4" stroke-opacity="1" fill="none" fill-rule="nonzero" transform="matrix(1.00215 0 0 1 -481.139 -200.45)"/><path d="M685.576 618.69 685.576 643.772" stroke="#009600" stroke-width="1.00328" stroke-linecap="round" stroke-linejoin="round" stroke-miterlimit="4" stroke-opacity="1" fill="none" fill-rule="nonzero" transform="matrix(1.00215 0 0 1 -481.139 -200.45)"/><path d="M685.576 501.641 685.576 535.084" stroke="#009600" stroke-width="1.00328" stroke-linecap="round" stroke-linejoin="round" stroke-miterlimit="4" stroke-opacity="1" fill="none" fill-rule="nonzero" transform="matrix(1.00215 0 0 1 -481.139 -200.45)"/><path d="M685.576 418.034 810.986 418.034" stroke="#009600" stroke-width="1.00328" stroke-linecap="round" stroke-linejoin="round" stroke-miterlimit="4" stroke-opacity="1" fill="none" fill-rule="nonzero" transform="matrix(1.00215 0 0 1 -481.139 -200.45)"/><path d="M652.133 535.084 685.576 535.084" stroke="#009600" stroke-width="1.00328" stroke-linecap="round" stroke-linejoin="round" stroke-miterlimit="4" stroke-opacity="1" fill="none" fill-rule="nonzero" transform="matrix(1.00215 0 0 1 -481.139 -200.45)"/><path d="M810.986 418.034 810.986 518.362" stroke="#009600" stroke-width="1.00328" stroke-linecap="round" stroke-linejoin="round" stroke-miterlimit="4" stroke-opacity="1" fill="none" fill-rule="nonzero" transform="matrix(1.00215 0 0 1 -481.139 -200.45)"/><path d="M819.347 392.952 819.347 501.641" stroke="#009600" stroke-width="1.00328" stroke-linecap="round" stroke-linejoin="round" stroke-miterlimit="4" stroke-opacity="1" fill="none" fill-rule="nonzero" transform="matrix(1.00215 0 0 1 -481.139 -200.45)"/><path d="M685.576 451.477 685.576 418.034" stroke="#009600" stroke-width="1.00328" stroke-linecap="round" stroke-linejoin="round" stroke-miterlimit="4" stroke-opacity="1" fill="none" fill-rule="nonzero" transform="matrix(1.00215 0 0 1 -481.139 -200.45)"/><path d="M819.347 501.641 936.396 501.641" stroke="#009600" stroke-width="1.00328" stroke-linecap="round" stroke-linejoin="round" stroke-miterlimit="4" stroke-opacity="1" fill="none" fill-rule="nonzero" transform="matrix(1.00215 0 0 1 -481.139 -200.45)"/><path d="M688.586 535.084C688.586 536.746 687.238 538.093 685.576 538.093 683.914 538.093 682.566 536.746 682.566 535.084 682.566 533.421 683.914 532.074 685.576 532.074 687.238 532.074 688.586 533.421 688.586 535.084Z" stroke="#009600" stroke-width="1.00328" stroke-linecap="round" stroke-linejoin="round" stroke-miterlimit="4" stroke-opacity="1" fill="#009600" fill-rule="nonzero" fill-opacity="1" transform="matrix(1.00215 0 0 1 -481.139 -200.45)"/></g></g></svg>