<svg width="410" height="268" xmlns="http://www.w3.org/2000/svg" xmlns:xlink="http://www.w3.org/1999/xlink" overflow="hidden"><defs><clipPath id="clip0"><rect x="88" y="192" width="410" height="268"/></clipPath></defs><g clip-path="url(#clip0)" transform="translate(-88 -192)"><path d="M965.079 553.872 965.079 562.264 973.471 562.264 965.079 570.656 956.687 562.264 965.079 562.264" stroke="#840000" stroke-width="1.00704" stroke-linecap="round" stroke-linejoin="round" stroke-miterlimit="4" stroke-opacity="1" fill="none" fill-rule="nonzero" transform="matrix(1.00029 0 0 1 -481.656 -201.92)"/><path d="M958.685 583.244 957.879 582.841 956.687 582.841 955.479 583.244 954.673 584.032 954.287 584.838 953.884 586.433 953.884 587.624 954.287 589.235 954.673 590.024 955.479 590.83 956.687 591.233 957.476 591.233 958.685 590.83 959.071 590.427 959.071 587.624 957.476 587.624" stroke="#006464" stroke-width="1.00704" stroke-linecap="round" stroke-linejoin="round" stroke-miterlimit="4" stroke-opacity="1" fill="none" fill-rule="nonzero" transform="matrix(1.00029 0 0 1 -481.656 -201.92)"/><path d="M962.679 591.233 962.679 582.841 967.463 591.233 967.463 582.841" stroke="#006464" stroke-width="1.00704" stroke-linecap="round" stroke-linejoin="round" stroke-miterlimit="4" stroke-opacity="1" fill="none" fill-rule="nonzero" transform="matrix(1.00029 0 0 1 -481.656 -201.92)"/><path d="M971.457 591.233 971.457 582.841 973.471 582.841 974.663 583.244 975.469 584.032 975.855 584.838 976.257 586.433 976.257 587.624 975.855 589.235 975.469 590.024 974.663 590.83 973.471 591.233 971.457 591.233" stroke="#006464" stroke-width="1.00704" stroke-linecap="round" stroke-linejoin="round" stroke-miterlimit="4" stroke-opacity="1" fill="none" fill-rule="nonzero" transform="matrix(1.00029 0 0 1 -481.656 -201.92)"/><path d="M960.044 511.912 965.079 503.52" stroke="#840000" stroke-width="1.00704" stroke-linecap="round" stroke-linejoin="round" stroke-miterlimit="4" stroke-opacity="1" fill="none" fill-rule="nonzero" transform="matrix(1.00029 0 0 1 -481.656 -201.92)"/><path d="M965.079 520.304 965.079 503.52" stroke="#840000" stroke-width="1.00704" stroke-linecap="round" stroke-linejoin="round" stroke-miterlimit="4" stroke-opacity="1" fill="none" fill-rule="nonzero" transform="matrix(1.00029 0 0 1 -481.656 -201.92)"/><path d="M965.079 503.52 970.115 511.912" stroke="#840000" stroke-width="1.00704" stroke-linecap="round" stroke-linejoin="round" stroke-miterlimit="4" stroke-opacity="1" fill="none" fill-rule="nonzero" transform="matrix(1.00029 0 0 1 -481.656 -201.92)"/><path d="M954.287 487.323 960.682 487.323" stroke="#006464" stroke-width="1.00704" stroke-linecap="round" stroke-linejoin="round" stroke-miterlimit="4" stroke-opacity="1" fill="none" fill-rule="nonzero" transform="matrix(1.00029 0 0 1 -481.656 -201.92)"/><path d="M957.476 490.529 957.476 484.134" stroke="#006464" stroke-width="1.00704" stroke-linecap="round" stroke-linejoin="round" stroke-miterlimit="4" stroke-opacity="1" fill="none" fill-rule="nonzero" transform="matrix(1.00029 0 0 1 -481.656 -201.92)"/><path d="M968.671 482.137 964.677 482.137 964.274 486.131 964.677 485.729 965.465 485.326 967.463 485.326 968.268 485.729 968.671 486.131 969.074 486.92 969.074 488.918 968.671 489.723 968.268 490.126 967.463 490.529 965.465 490.529 964.677 490.126 964.274 489.723" stroke="#006464" stroke-width="1.00704" stroke-linecap="round" stroke-linejoin="round" stroke-miterlimit="4" stroke-opacity="1" fill="none" fill-rule="nonzero" transform="matrix(1.00029 0 0 1 -481.656 -201.92)"/><path d="M971.457 482.137 974.26 490.529 977.063 482.137" stroke="#006464" stroke-width="1.00704" stroke-linecap="round" stroke-linejoin="round" stroke-miterlimit="4" stroke-opacity="1" fill="none" fill-rule="nonzero" transform="matrix(1.00029 0 0 1 -481.656 -201.92)"/><path d="M681.43 579.048 694.857 579.048 694.857 612.616 681.43 612.616Z" stroke="#840000" stroke-width="1.6784" stroke-linecap="round" stroke-linejoin="round" stroke-miterlimit="4" stroke-opacity="1" fill="none" fill-rule="nonzero" transform="matrix(1.00029 0 0 1 -481.656 -201.92)"/><path d="M688.143 579.048 688.143 570.656" stroke="#840000" stroke-width="1.00704" stroke-linecap="round" stroke-linejoin="round" stroke-miterlimit="4" stroke-opacity="1" fill="none" fill-rule="nonzero" transform="matrix(1.00029 0 0 1 -481.656 -201.92)"/><path d="M688.143 612.616 688.143 621.008" stroke="#840000" stroke-width="1.00704" stroke-linecap="round" stroke-linejoin="round" stroke-miterlimit="4" stroke-opacity="1" fill="none" fill-rule="nonzero" transform="matrix(1.00029 0 0 1 -481.656 -201.92)"/><path d="M707.193 591.904 704.407 587.91" stroke="#006464" stroke-width="1.00704" stroke-linecap="round" stroke-linejoin="round" stroke-miterlimit="4" stroke-opacity="1" fill="none" fill-rule="nonzero" transform="matrix(1.00029 0 0 1 -481.656 -201.92)"/><path d="M702.41 591.904 702.41 583.512 705.599 583.512 706.404 583.915 706.807 584.301 707.193 585.107 707.193 586.298 706.807 587.104 706.404 587.507 705.599 587.91 702.41 587.91" stroke="#006464" stroke-width="1.00704" stroke-linecap="round" stroke-linejoin="round" stroke-miterlimit="4" stroke-opacity="1" fill="none" fill-rule="nonzero" transform="matrix(1.00029 0 0 1 -481.656 -201.92)"/><path d="M708.805 592.693 715.199 592.693" stroke="#006464" stroke-width="1.00704" stroke-linecap="round" stroke-linejoin="round" stroke-miterlimit="4" stroke-opacity="1" fill="none" fill-rule="nonzero" transform="matrix(1.00029 0 0 1 -481.656 -201.92)"/><path d="M716.391 586.298 718.388 591.904" stroke="#006464" stroke-width="1.00704" stroke-linecap="round" stroke-linejoin="round" stroke-miterlimit="4" stroke-opacity="1" fill="none" fill-rule="nonzero" transform="matrix(1.00029 0 0 1 -481.656 -201.92)"/><path d="M720.386 586.298 718.388 591.904 717.599 593.901 717.197 594.304 716.391 594.69" stroke="#006464" stroke-width="1.00704" stroke-linecap="round" stroke-linejoin="round" stroke-miterlimit="4" stroke-opacity="1" fill="none" fill-rule="nonzero" transform="matrix(1.00029 0 0 1 -481.656 -201.92)"/><path d="M724.783 591.904 723.977 591.501 723.591 590.696 723.591 583.512" stroke="#006464" stroke-width="1.00704" stroke-linecap="round" stroke-linejoin="round" stroke-miterlimit="4" stroke-opacity="1" fill="none" fill-rule="nonzero" transform="matrix(1.00029 0 0 1 -481.656 -201.92)"/><path d="M729.18 591.904 728.375 591.501 727.989 591.099 727.586 590.293 727.586 587.91 727.989 587.104 728.375 586.701 729.18 586.298 730.372 586.298 731.178 586.701 731.58 587.104 731.983 587.91 731.983 590.293 731.58 591.099 731.178 591.501 730.372 591.904 729.18 591.904" stroke="#006464" stroke-width="1.00704" stroke-linecap="round" stroke-linejoin="round" stroke-miterlimit="4" stroke-opacity="1" fill="none" fill-rule="nonzero" transform="matrix(1.00029 0 0 1 -481.656 -201.92)"/><path d="M707.193 607.178 704.407 603.183" stroke="#006464" stroke-width="1.00704" stroke-linecap="round" stroke-linejoin="round" stroke-miterlimit="4" stroke-opacity="1" fill="none" fill-rule="nonzero" transform="matrix(1.00029 0 0 1 -481.656 -201.92)"/><path d="M702.41 607.178 702.41 598.786 705.599 598.786 706.404 599.188 706.807 599.574 707.193 600.38 707.193 601.572 706.807 602.377 706.404 602.78 705.599 603.183 702.41 603.183" stroke="#006464" stroke-width="1.00704" stroke-linecap="round" stroke-linejoin="round" stroke-miterlimit="4" stroke-opacity="1" fill="none" fill-rule="nonzero" transform="matrix(1.00029 0 0 1 -481.656 -201.92)"/><path d="M681.43 461.56 694.857 461.56 694.857 495.128 681.43 495.128Z" stroke="#840000" stroke-width="1.6784" stroke-linecap="round" stroke-linejoin="round" stroke-miterlimit="4" stroke-opacity="1" fill="none" fill-rule="nonzero" transform="matrix(1.00029 0 0 1 -481.656 -201.92)"/><path d="M688.143 461.56 688.143 453.168" stroke="#840000" stroke-width="1.00704" stroke-linecap="round" stroke-linejoin="round" stroke-miterlimit="4" stroke-opacity="1" fill="none" fill-rule="nonzero" transform="matrix(1.00029 0 0 1 -481.656 -201.92)"/><path d="M688.143 495.128 688.143 503.52" stroke="#840000" stroke-width="1.00704" stroke-linecap="round" stroke-linejoin="round" stroke-miterlimit="4" stroke-opacity="1" fill="none" fill-rule="nonzero" transform="matrix(1.00029 0 0 1 -481.656 -201.92)"/><path d="M707.193 474.416 704.407 470.422" stroke="#006464" stroke-width="1.00704" stroke-linecap="round" stroke-linejoin="round" stroke-miterlimit="4" stroke-opacity="1" fill="none" fill-rule="nonzero" transform="matrix(1.00029 0 0 1 -481.656 -201.92)"/><path d="M702.41 474.416 702.41 466.024 705.599 466.024 706.404 466.427 706.807 466.813 707.193 467.619 707.193 468.81 706.807 469.616 706.404 470.019 705.599 470.422 702.41 470.422" stroke="#006464" stroke-width="1.00704" stroke-linecap="round" stroke-linejoin="round" stroke-miterlimit="4" stroke-opacity="1" fill="none" fill-rule="nonzero" transform="matrix(1.00029 0 0 1 -481.656 -201.92)"/><path d="M708.805 475.205 715.199 475.205" stroke="#006464" stroke-width="1.00704" stroke-linecap="round" stroke-linejoin="round" stroke-miterlimit="4" stroke-opacity="1" fill="none" fill-rule="nonzero" transform="matrix(1.00029 0 0 1 -481.656 -201.92)"/><path d="M716.391 468.81 718.388 474.416" stroke="#006464" stroke-width="1.00704" stroke-linecap="round" stroke-linejoin="round" stroke-miterlimit="4" stroke-opacity="1" fill="none" fill-rule="nonzero" transform="matrix(1.00029 0 0 1 -481.656 -201.92)"/><path d="M720.386 468.81 718.388 474.416 717.599 476.414 717.197 476.816 716.391 477.202" stroke="#006464" stroke-width="1.00704" stroke-linecap="round" stroke-linejoin="round" stroke-miterlimit="4" stroke-opacity="1" fill="none" fill-rule="nonzero" transform="matrix(1.00029 0 0 1 -481.656 -201.92)"/><path d="M727.183 468.81 727.183 474.416" stroke="#006464" stroke-width="1.00704" stroke-linecap="round" stroke-linejoin="round" stroke-miterlimit="4" stroke-opacity="1" fill="none" fill-rule="nonzero" transform="matrix(1.00029 0 0 1 -481.656 -201.92)"/><path d="M723.591 468.81 723.591 473.208 723.977 474.013 724.783 474.416 725.991 474.416 726.78 474.013 727.183 473.611" stroke="#006464" stroke-width="1.00704" stroke-linecap="round" stroke-linejoin="round" stroke-miterlimit="4" stroke-opacity="1" fill="none" fill-rule="nonzero" transform="matrix(1.00029 0 0 1 -481.656 -201.92)"/><path d="M731.178 468.81 731.178 477.202" stroke="#006464" stroke-width="1.00704" stroke-linecap="round" stroke-linejoin="round" stroke-miterlimit="4" stroke-opacity="1" fill="none" fill-rule="nonzero" transform="matrix(1.00029 0 0 1 -481.656 -201.92)"/><path d="M731.178 469.213 731.983 468.81 733.578 468.81 734.383 469.213 734.769 469.616 735.172 470.422 735.172 472.805 734.769 473.611 734.383 474.013 733.578 474.416 731.983 474.416 731.178 474.013" stroke="#006464" stroke-width="1.00704" stroke-linecap="round" stroke-linejoin="round" stroke-miterlimit="4" stroke-opacity="1" fill="none" fill-rule="nonzero" transform="matrix(1.00029 0 0 1 -481.656 -201.92)"/><path d="M707.193 489.69 704.407 485.695" stroke="#006464" stroke-width="1.00704" stroke-linecap="round" stroke-linejoin="round" stroke-miterlimit="4" stroke-opacity="1" fill="none" fill-rule="nonzero" transform="matrix(1.00029 0 0 1 -481.656 -201.92)"/><path d="M702.41 489.69 702.41 481.298 705.599 481.298 706.404 481.7 706.807 482.086 707.193 482.892 707.193 484.084 706.807 484.889 706.404 485.292 705.599 485.695 702.41 485.695" stroke="#006464" stroke-width="1.00704" stroke-linecap="round" stroke-linejoin="round" stroke-miterlimit="4" stroke-opacity="1" fill="none" fill-rule="nonzero" transform="matrix(1.00029 0 0 1 -481.656 -201.92)"/><path d="M612.616 530.374 646.184 530.374 646.184 543.801 612.616 543.801Z" stroke="#840000" stroke-width="1.6784" stroke-linecap="round" stroke-linejoin="round" stroke-miterlimit="4" stroke-opacity="1" fill="none" fill-rule="nonzero" transform="matrix(1.00029 0 0 1 -481.656 -201.92)"/><path d="M646.184 537.088 654.576 537.088" stroke="#840000" stroke-width="1.00704" stroke-linecap="round" stroke-linejoin="round" stroke-miterlimit="4" stroke-opacity="1" fill="none" fill-rule="nonzero" transform="matrix(1.00029 0 0 1 -481.656 -201.92)"/><path d="M612.616 537.088 604.224 537.088" stroke="#840000" stroke-width="1.00704" stroke-linecap="round" stroke-linejoin="round" stroke-miterlimit="4" stroke-opacity="1" fill="none" fill-rule="nonzero" transform="matrix(1.00029 0 0 1 -481.656 -201.92)"/><path d="M619.598 506.138 616.812 502.143" stroke="#006464" stroke-width="1.00704" stroke-linecap="round" stroke-linejoin="round" stroke-miterlimit="4" stroke-opacity="1" fill="none" fill-rule="nonzero" transform="matrix(1.00029 0 0 1 -481.656 -201.92)"/><path d="M614.797 506.138 614.797 497.746 618.003 497.746 618.809 498.149 619.195 498.535 619.598 499.34 619.598 500.532 619.195 501.338 618.809 501.741 618.003 502.143 614.797 502.143" stroke="#006464" stroke-width="1.00704" stroke-linecap="round" stroke-linejoin="round" stroke-miterlimit="4" stroke-opacity="1" fill="none" fill-rule="nonzero" transform="matrix(1.00029 0 0 1 -481.656 -201.92)"/><path d="M621.192 506.927 627.587 506.927" stroke="#006464" stroke-width="1.00704" stroke-linecap="round" stroke-linejoin="round" stroke-miterlimit="4" stroke-opacity="1" fill="none" fill-rule="nonzero" transform="matrix(1.00029 0 0 1 -481.656 -201.92)"/><path d="M628.795 506.138 633.193 500.532" stroke="#006464" stroke-width="1.00704" stroke-linecap="round" stroke-linejoin="round" stroke-miterlimit="4" stroke-opacity="1" fill="none" fill-rule="nonzero" transform="matrix(1.00029 0 0 1 -481.656 -201.92)"/><path d="M628.795 500.532 633.193 506.138" stroke="#006464" stroke-width="1.00704" stroke-linecap="round" stroke-linejoin="round" stroke-miterlimit="4" stroke-opacity="1" fill="none" fill-rule="nonzero" transform="matrix(1.00029 0 0 1 -481.656 -201.92)"/><path d="M637.59 506.138 636.784 505.735 636.382 504.93 636.382 497.746" stroke="#006464" stroke-width="1.00704" stroke-linecap="round" stroke-linejoin="round" stroke-miterlimit="4" stroke-opacity="1" fill="none" fill-rule="nonzero" transform="matrix(1.00029 0 0 1 -481.656 -201.92)"/><path d="M643.985 505.735 643.179 506.138 641.585 506.138 640.779 505.735 640.376 504.93 640.376 501.741 640.779 500.935 641.585 500.532 643.179 500.532 643.985 500.935 644.371 501.741 644.371 502.529 640.376 503.335" stroke="#006464" stroke-width="1.00704" stroke-linecap="round" stroke-linejoin="round" stroke-miterlimit="4" stroke-opacity="1" fill="none" fill-rule="nonzero" transform="matrix(1.00029 0 0 1 -481.656 -201.92)"/><path d="M631.984 521.411 629.198 517.417" stroke="#006464" stroke-width="1.00704" stroke-linecap="round" stroke-linejoin="round" stroke-miterlimit="4" stroke-opacity="1" fill="none" fill-rule="nonzero" transform="matrix(1.00029 0 0 1 -481.656 -201.92)"/><path d="M627.201 521.411 627.201 513.019 630.39 513.019 631.195 513.422 631.581 513.808 631.984 514.614 631.984 515.806 631.581 516.611 631.195 517.014 630.39 517.417 627.201 517.417" stroke="#006464" stroke-width="1.00704" stroke-linecap="round" stroke-linejoin="round" stroke-miterlimit="4" stroke-opacity="1" fill="none" fill-rule="nonzero" transform="matrix(1.00029 0 0 1 -481.656 -201.92)"/><path d="M925.217 505.517 929.212 505.517" stroke="#840000" stroke-width="1.00704" stroke-linecap="round" stroke-linejoin="round" stroke-miterlimit="4" stroke-opacity="1" fill="none" fill-rule="nonzero" transform="matrix(1.00029 0 0 1 -481.656 -201.92)"/><path d="M924.412 507.9 927.215 499.508 930.001 507.9" stroke="#840000" stroke-width="1.00704" stroke-linecap="round" stroke-linejoin="round" stroke-miterlimit="4" stroke-opacity="1" fill="none" fill-rule="nonzero" transform="matrix(1.00029 0 0 1 -481.656 -201.92)"/><path d="M932.804 507.9 932.804 499.508 934.801 499.508 936.009 499.911 936.798 500.717 937.201 501.506 937.604 503.117 937.604 504.309 937.201 505.903 936.798 506.709 936.009 507.514 934.801 507.9 932.804 507.9" stroke="#840000" stroke-width="1.00704" stroke-linecap="round" stroke-linejoin="round" stroke-miterlimit="4" stroke-opacity="1" fill="none" fill-rule="nonzero" transform="matrix(1.00029 0 0 1 -481.656 -201.92)"/><path d="M945.996 507.111 945.593 507.514 944.401 507.9 943.596 507.9 942.404 507.514 941.599 506.709 941.196 505.903 940.793 504.309 940.793 503.117 941.196 501.506 941.599 500.717 942.404 499.911 943.596 499.508 944.401 499.508 945.593 499.911 945.996 500.314" stroke="#840000" stroke-width="1.00704" stroke-linecap="round" stroke-linejoin="round" stroke-miterlimit="4" stroke-opacity="1" fill="none" fill-rule="nonzero" transform="matrix(1.00029 0 0 1 -481.656 -201.92)"/><path d="M914.727 503.52 921.021 510.864 951.295 510.864 951.295 503.52 951.295 496.175 921.021 496.175Z" stroke="#840000" stroke-width="1.00704" stroke-linecap="round" stroke-linejoin="round" stroke-miterlimit="4" stroke-opacity="1" fill="none" fill-rule="nonzero" transform="matrix(1.00029 0 0 1 -481.656 -201.92)"/><path d="M857.679 526.564 863.268 534.956" stroke="#0F0F0F" stroke-width="1.00704" stroke-linecap="round" stroke-linejoin="round" stroke-miterlimit="4" stroke-opacity="1" fill="none" fill-rule="nonzero" transform="matrix(1.00029 0 0 1 -481.656 -201.92)"/><path d="M863.268 526.564 857.679 534.956" stroke="#0F0F0F" stroke-width="1.00704" stroke-linecap="round" stroke-linejoin="round" stroke-miterlimit="4" stroke-opacity="1" fill="none" fill-rule="nonzero" transform="matrix(1.00029 0 0 1 -481.656 -201.92)"/><path d="M864.476 535.762 870.871 535.762" stroke="#0F0F0F" stroke-width="1.00704" stroke-linecap="round" stroke-linejoin="round" stroke-miterlimit="4" stroke-opacity="1" fill="none" fill-rule="nonzero" transform="matrix(1.00029 0 0 1 -481.656 -201.92)"/><path d="M877.652 534.956 874.865 530.961" stroke="#0F0F0F" stroke-width="1.00704" stroke-linecap="round" stroke-linejoin="round" stroke-miterlimit="4" stroke-opacity="1" fill="none" fill-rule="nonzero" transform="matrix(1.00029 0 0 1 -481.656 -201.92)"/><path d="M872.868 534.956 872.868 526.564 876.057 526.564 876.863 526.967 877.266 527.37 877.652 528.159 877.652 529.367 877.266 530.156 876.863 530.559 876.057 530.961 872.868 530.961" stroke="#0F0F0F" stroke-width="1.00704" stroke-linecap="round" stroke-linejoin="round" stroke-miterlimit="4" stroke-opacity="1" fill="none" fill-rule="nonzero" transform="matrix(1.00029 0 0 1 -481.656 -201.92)"/><path d="M881.26 534.956 881.26 529.367" stroke="#0F0F0F" stroke-width="1.00704" stroke-linecap="round" stroke-linejoin="round" stroke-miterlimit="4" stroke-opacity="1" fill="none" fill-rule="nonzero" transform="matrix(1.00029 0 0 1 -481.656 -201.92)"/><path d="M881.26 526.564 880.857 526.967 881.26 527.37 881.663 526.967 881.26 526.564 881.26 527.37" stroke="#0F0F0F" stroke-width="1.00704" stroke-linecap="round" stroke-linejoin="round" stroke-miterlimit="4" stroke-opacity="1" fill="none" fill-rule="nonzero" transform="matrix(1.00029 0 0 1 -481.656 -201.92)"/><path d="M860.079 514.177 860.079 518.172" stroke="#0F0F0F" stroke-width="1.00704" stroke-linecap="round" stroke-linejoin="round" stroke-miterlimit="4" stroke-opacity="1" fill="none" fill-rule="nonzero" transform="matrix(1.00029 0 0 1 -481.656 -201.92)"/><path d="M857.276 509.78 860.079 514.177 862.865 509.78" stroke="#0F0F0F" stroke-width="1.00704" stroke-linecap="round" stroke-linejoin="round" stroke-miterlimit="4" stroke-opacity="1" fill="none" fill-rule="nonzero" transform="matrix(1.00029 0 0 1 -481.656 -201.92)"/><path d="M863.67 518.978 870.065 518.978" stroke="#0F0F0F" stroke-width="1.00704" stroke-linecap="round" stroke-linejoin="round" stroke-miterlimit="4" stroke-opacity="1" fill="none" fill-rule="nonzero" transform="matrix(1.00029 0 0 1 -481.656 -201.92)"/><path d="M872.062 509.78 872.062 516.578 872.465 517.383 872.868 517.769 873.657 518.172 875.268 518.172 876.057 517.769 876.46 517.383 876.863 516.578 876.863 509.78" stroke="#0F0F0F" stroke-width="1.00704" stroke-linecap="round" stroke-linejoin="round" stroke-miterlimit="4" stroke-opacity="1" fill="none" fill-rule="nonzero" transform="matrix(1.00029 0 0 1 -481.656 -201.92)"/><path d="M880.857 512.583 880.857 520.975" stroke="#0F0F0F" stroke-width="1.00704" stroke-linecap="round" stroke-linejoin="round" stroke-miterlimit="4" stroke-opacity="1" fill="none" fill-rule="nonzero" transform="matrix(1.00029 0 0 1 -481.656 -201.92)"/><path d="M880.857 512.986 881.663 512.583 883.257 512.583 884.046 512.986 884.449 513.372 884.852 514.177 884.852 516.578 884.449 517.383 884.046 517.769 883.257 518.172 881.663 518.172 880.857 517.769" stroke="#0F0F0F" stroke-width="1.00704" stroke-linecap="round" stroke-linejoin="round" stroke-miterlimit="4" stroke-opacity="1" fill="none" fill-rule="nonzero" transform="matrix(1.00029 0 0 1 -481.656 -201.92)"/><path d="M857.679 492.996 863.268 501.388" stroke="#0F0F0F" stroke-width="1.00704" stroke-linecap="round" stroke-linejoin="round" stroke-miterlimit="4" stroke-opacity="1" fill="none" fill-rule="nonzero" transform="matrix(1.00029 0 0 1 -481.656 -201.92)"/><path d="M863.268 492.996 857.679 501.388" stroke="#0F0F0F" stroke-width="1.00704" stroke-linecap="round" stroke-linejoin="round" stroke-miterlimit="4" stroke-opacity="1" fill="none" fill-rule="nonzero" transform="matrix(1.00029 0 0 1 -481.656 -201.92)"/><path d="M864.476 502.194 870.871 502.194" stroke="#0F0F0F" stroke-width="1.00704" stroke-linecap="round" stroke-linejoin="round" stroke-miterlimit="4" stroke-opacity="1" fill="none" fill-rule="nonzero" transform="matrix(1.00029 0 0 1 -481.656 -201.92)"/><path d="M876.863 501.388 872.868 501.388 872.868 492.996" stroke="#0F0F0F" stroke-width="1.00704" stroke-linecap="round" stroke-linejoin="round" stroke-miterlimit="4" stroke-opacity="1" fill="none" fill-rule="nonzero" transform="matrix(1.00029 0 0 1 -481.656 -201.92)"/><path d="M882.855 500.985 882.049 501.388 880.454 501.388 879.649 500.985 879.263 500.196 879.263 496.991 879.649 496.202 880.454 495.799 882.049 495.799 882.855 496.202 883.257 496.991 883.257 497.796 879.263 498.585" stroke="#0F0F0F" stroke-width="1.00704" stroke-linecap="round" stroke-linejoin="round" stroke-miterlimit="4" stroke-opacity="1" fill="none" fill-rule="nonzero" transform="matrix(1.00029 0 0 1 -481.656 -201.92)"/><path d="M860.079 547.745 860.079 551.74" stroke="#0F0F0F" stroke-width="1.00704" stroke-linecap="round" stroke-linejoin="round" stroke-miterlimit="4" stroke-opacity="1" fill="none" fill-rule="nonzero" transform="matrix(1.00029 0 0 1 -481.656 -201.92)"/><path d="M857.276 543.348 860.079 547.745 862.865 543.348" stroke="#0F0F0F" stroke-width="1.00704" stroke-linecap="round" stroke-linejoin="round" stroke-miterlimit="4" stroke-opacity="1" fill="none" fill-rule="nonzero" transform="matrix(1.00029 0 0 1 -481.656 -201.92)"/><path d="M863.67 552.546 870.065 552.546" stroke="#0F0F0F" stroke-width="1.00704" stroke-linecap="round" stroke-linejoin="round" stroke-miterlimit="4" stroke-opacity="1" fill="none" fill-rule="nonzero" transform="matrix(1.00029 0 0 1 -481.656 -201.92)"/><path d="M876.057 551.74 872.062 551.74 872.062 543.348" stroke="#0F0F0F" stroke-width="1.00704" stroke-linecap="round" stroke-linejoin="round" stroke-miterlimit="4" stroke-opacity="1" fill="none" fill-rule="nonzero" transform="matrix(1.00029 0 0 1 -481.656 -201.92)"/><path d="M880.052 551.74 879.263 551.337 878.86 550.951 878.457 550.146 878.457 547.745 878.86 546.94 879.263 546.554 880.052 546.151 881.26 546.151 882.049 546.554 882.452 546.94 882.855 547.745 882.855 550.146 882.452 550.951 882.049 551.337 881.26 551.74 880.052 551.74" stroke="#0F0F0F" stroke-width="1.00704" stroke-linecap="round" stroke-linejoin="round" stroke-miterlimit="4" stroke-opacity="1" fill="none" fill-rule="nonzero" transform="matrix(1.00029 0 0 1 -481.656 -201.92)"/><path d="M589.319 660.836 586.533 656.841" stroke="#0000C2" stroke-width="1.00704" stroke-linecap="round" stroke-linejoin="round" stroke-miterlimit="4" stroke-opacity="1" fill="none" fill-rule="nonzero" transform="matrix(1.00029 0 0 1 -481.656 -201.92)"/><path d="M584.536 660.836 584.536 652.444 587.725 652.444 588.531 652.847 588.933 653.25 589.319 654.038 589.319 655.247 588.933 656.036 588.531 656.439 587.725 656.841 584.536 656.841" stroke="#0000C2" stroke-width="1.00704" stroke-linecap="round" stroke-linejoin="round" stroke-miterlimit="4" stroke-opacity="1" fill="none" fill-rule="nonzero" transform="matrix(1.00029 0 0 1 -481.656 -201.92)"/><path d="M596.117 660.433 595.328 660.836 593.717 660.836 592.928 660.433 592.525 659.644 592.525 656.439 592.928 655.65 593.717 655.247 595.328 655.247 596.117 655.65 596.52 656.439 596.52 657.244 592.525 658.033" stroke="#0000C2" stroke-width="1.00704" stroke-linecap="round" stroke-linejoin="round" stroke-miterlimit="4" stroke-opacity="1" fill="none" fill-rule="nonzero" transform="matrix(1.00029 0 0 1 -481.656 -201.92)"/><path d="M599.709 660.433 600.514 660.836 602.109 660.836 602.914 660.433 603.317 659.644 603.317 659.241 602.914 658.436 602.109 658.033 600.917 658.033 600.112 657.647 599.709 656.841 599.709 656.439 600.112 655.65 600.917 655.247 602.109 655.247 602.914 655.65" stroke="#0000C2" stroke-width="1.00704" stroke-linecap="round" stroke-linejoin="round" stroke-miterlimit="4" stroke-opacity="1" fill="none" fill-rule="nonzero" transform="matrix(1.00029 0 0 1 -481.656 -201.92)"/><path d="M606.909 660.836 606.909 655.247" stroke="#0000C2" stroke-width="1.00704" stroke-linecap="round" stroke-linejoin="round" stroke-miterlimit="4" stroke-opacity="1" fill="none" fill-rule="nonzero" transform="matrix(1.00029 0 0 1 -481.656 -201.92)"/><path d="M606.909 652.444 606.506 652.847 606.909 653.25 607.312 652.847 606.909 652.444 606.909 653.25" stroke="#0000C2" stroke-width="1.00704" stroke-linecap="round" stroke-linejoin="round" stroke-miterlimit="4" stroke-opacity="1" fill="none" fill-rule="nonzero" transform="matrix(1.00029 0 0 1 -481.656 -201.92)"/><path d="M610.501 660.433 611.306 660.836 612.901 660.836 613.707 660.433 614.109 659.644 614.109 659.241 613.707 658.436 612.901 658.033 611.709 658.033 610.904 657.647 610.501 656.841 610.501 656.439 610.904 655.65 611.709 655.247 612.901 655.247 613.707 655.65" stroke="#0000C2" stroke-width="1.00704" stroke-linecap="round" stroke-linejoin="round" stroke-miterlimit="4" stroke-opacity="1" fill="none" fill-rule="nonzero" transform="matrix(1.00029 0 0 1 -481.656 -201.92)"/><path d="M616.493 655.247 619.698 655.247" stroke="#0000C2" stroke-width="1.00704" stroke-linecap="round" stroke-linejoin="round" stroke-miterlimit="4" stroke-opacity="1" fill="none" fill-rule="nonzero" transform="matrix(1.00029 0 0 1 -481.656 -201.92)"/><path d="M617.701 652.444 617.701 659.644 618.104 660.433 618.893 660.836 619.698 660.836" stroke="#0000C2" stroke-width="1.00704" stroke-linecap="round" stroke-linejoin="round" stroke-miterlimit="4" stroke-opacity="1" fill="none" fill-rule="nonzero" transform="matrix(1.00029 0 0 1 -481.656 -201.92)"/><path d="M622.501 660.836 622.501 655.247" stroke="#0000C2" stroke-width="1.00704" stroke-linecap="round" stroke-linejoin="round" stroke-miterlimit="4" stroke-opacity="1" fill="none" fill-rule="nonzero" transform="matrix(1.00029 0 0 1 -481.656 -201.92)"/><path d="M622.501 652.444 622.099 652.847 622.501 653.25 622.887 652.847 622.501 652.444 622.501 653.25" stroke="#0000C2" stroke-width="1.00704" stroke-linecap="round" stroke-linejoin="round" stroke-miterlimit="4" stroke-opacity="1" fill="none" fill-rule="nonzero" transform="matrix(1.00029 0 0 1 -481.656 -201.92)"/><path d="M625.69 655.247 627.688 660.836 629.685 655.247" stroke="#0000C2" stroke-width="1.00704" stroke-linecap="round" stroke-linejoin="round" stroke-miterlimit="4" stroke-opacity="1" fill="none" fill-rule="nonzero" transform="matrix(1.00029 0 0 1 -481.656 -201.92)"/><path d="M636.08 660.433 635.274 660.836 633.679 660.836 632.891 660.433 632.488 659.644 632.488 656.439 632.891 655.65 633.679 655.247 635.274 655.247 636.08 655.65 636.482 656.439 636.482 657.244 632.488 658.033" stroke="#0000C2" stroke-width="1.00704" stroke-linecap="round" stroke-linejoin="round" stroke-miterlimit="4" stroke-opacity="1" fill="none" fill-rule="nonzero" transform="matrix(1.00029 0 0 1 -481.656 -201.92)"/><path d="M645.277 652.444 650.061 652.444" stroke="#0000C2" stroke-width="1.00704" stroke-linecap="round" stroke-linejoin="round" stroke-miterlimit="4" stroke-opacity="1" fill="none" fill-rule="nonzero" transform="matrix(1.00029 0 0 1 -481.656 -201.92)"/><path d="M647.677 660.836 647.677 652.444" stroke="#0000C2" stroke-width="1.00704" stroke-linecap="round" stroke-linejoin="round" stroke-miterlimit="4" stroke-opacity="1" fill="none" fill-rule="nonzero" transform="matrix(1.00029 0 0 1 -481.656 -201.92)"/><path d="M654.072 660.836 653.266 660.433 652.864 660.047 652.461 659.241 652.461 656.841 652.864 656.036 653.266 655.65 654.072 655.247 655.264 655.247 656.069 655.65 656.455 656.036 656.858 656.841 656.858 659.241 656.455 660.047 656.069 660.433 655.264 660.836 654.072 660.836" stroke="#0000C2" stroke-width="1.00704" stroke-linecap="round" stroke-linejoin="round" stroke-miterlimit="4" stroke-opacity="1" fill="none" fill-rule="nonzero" transform="matrix(1.00029 0 0 1 -481.656 -201.92)"/><path d="M664.058 655.247 664.058 660.836" stroke="#0000C2" stroke-width="1.00704" stroke-linecap="round" stroke-linejoin="round" stroke-miterlimit="4" stroke-opacity="1" fill="none" fill-rule="nonzero" transform="matrix(1.00029 0 0 1 -481.656 -201.92)"/><path d="M660.45 655.247 660.45 659.644 660.853 660.433 661.658 660.836 662.85 660.836 663.656 660.433 664.058 660.047" stroke="#0000C2" stroke-width="1.00704" stroke-linecap="round" stroke-linejoin="round" stroke-miterlimit="4" stroke-opacity="1" fill="none" fill-rule="nonzero" transform="matrix(1.00029 0 0 1 -481.656 -201.92)"/><path d="M671.645 660.433 670.856 660.836 669.245 660.836 668.456 660.433 668.053 660.047 667.65 659.241 667.65 656.841 668.053 656.036 668.456 655.65 669.245 655.247 670.856 655.247 671.645 655.65" stroke="#0000C2" stroke-width="1.00704" stroke-linecap="round" stroke-linejoin="round" stroke-miterlimit="4" stroke-opacity="1" fill="none" fill-rule="nonzero" transform="matrix(1.00029 0 0 1 -481.656 -201.92)"/><path d="M675.237 660.836 675.237 652.444" stroke="#0000C2" stroke-width="1.00704" stroke-linecap="round" stroke-linejoin="round" stroke-miterlimit="4" stroke-opacity="1" fill="none" fill-rule="nonzero" transform="matrix(1.00029 0 0 1 -481.656 -201.92)"/><path d="M678.845 660.836 678.845 656.439 678.442 655.65 677.637 655.247 676.445 655.247 675.639 655.65 675.237 656.036" stroke="#0000C2" stroke-width="1.00704" stroke-linecap="round" stroke-linejoin="round" stroke-miterlimit="4" stroke-opacity="1" fill="none" fill-rule="nonzero" transform="matrix(1.00029 0 0 1 -481.656 -201.92)"/><path d="M688.832 660.433 690.023 660.836 692.021 660.836 692.826 660.433 693.229 660.047 693.632 659.241 693.632 658.436 693.229 657.647 692.826 657.244 692.021 656.841 690.426 656.439 689.637 656.036 689.234 655.65 688.832 654.844 688.832 654.038 689.234 653.25 689.637 652.847 690.426 652.444 692.423 652.444 693.632 652.847" stroke="#0000C2" stroke-width="1.00704" stroke-linecap="round" stroke-linejoin="round" stroke-miterlimit="4" stroke-opacity="1" fill="none" fill-rule="nonzero" transform="matrix(1.00029 0 0 1 -481.656 -201.92)"/><path d="M700.815 660.433 700.027 660.836 698.415 660.836 697.626 660.433 697.224 660.047 696.821 659.241 696.821 656.841 697.224 656.036 697.626 655.65 698.415 655.247 700.027 655.247 700.815 655.65" stroke="#0000C2" stroke-width="1.00704" stroke-linecap="round" stroke-linejoin="round" stroke-miterlimit="4" stroke-opacity="1" fill="none" fill-rule="nonzero" transform="matrix(1.00029 0 0 1 -481.656 -201.92)"/><path d="M704.424 660.836 704.424 655.247" stroke="#0000C2" stroke-width="1.00704" stroke-linecap="round" stroke-linejoin="round" stroke-miterlimit="4" stroke-opacity="1" fill="none" fill-rule="nonzero" transform="matrix(1.00029 0 0 1 -481.656 -201.92)"/><path d="M704.424 656.841 704.81 656.036 705.213 655.65 706.018 655.247 706.807 655.247" stroke="#0000C2" stroke-width="1.00704" stroke-linecap="round" stroke-linejoin="round" stroke-miterlimit="4" stroke-opacity="1" fill="none" fill-rule="nonzero" transform="matrix(1.00029 0 0 1 -481.656 -201.92)"/><path d="M712.816 660.433 712.01 660.836 710.416 660.836 709.61 660.433 709.207 659.644 709.207 656.439 709.61 655.65 710.416 655.247 712.01 655.247 712.816 655.65 713.202 656.439 713.202 657.244 709.207 658.033" stroke="#0000C2" stroke-width="1.00704" stroke-linecap="round" stroke-linejoin="round" stroke-miterlimit="4" stroke-opacity="1" fill="none" fill-rule="nonzero" transform="matrix(1.00029 0 0 1 -481.656 -201.92)"/><path d="M720 660.433 719.194 660.836 717.599 660.836 716.811 660.433 716.408 659.644 716.408 656.439 716.811 655.65 717.599 655.247 719.194 655.247 720 655.65 720.402 656.439 720.402 657.244 716.408 658.033" stroke="#0000C2" stroke-width="1.00704" stroke-linecap="round" stroke-linejoin="round" stroke-miterlimit="4" stroke-opacity="1" fill="none" fill-rule="nonzero" transform="matrix(1.00029 0 0 1 -481.656 -201.92)"/><path d="M723.994 655.247 723.994 660.836" stroke="#0000C2" stroke-width="1.00704" stroke-linecap="round" stroke-linejoin="round" stroke-miterlimit="4" stroke-opacity="1" fill="none" fill-rule="nonzero" transform="matrix(1.00029 0 0 1 -481.656 -201.92)"/><path d="M723.994 656.036 724.397 655.65 725.203 655.247 726.394 655.247 727.2 655.65 727.586 656.439 727.586 660.836" stroke="#0000C2" stroke-width="1.00704" stroke-linecap="round" stroke-linejoin="round" stroke-miterlimit="4" stroke-opacity="1" fill="none" fill-rule="nonzero" transform="matrix(1.00029 0 0 1 -481.656 -201.92)"/><path d="M797.239 637.792 579.048 637.792" stroke="#0000C2" stroke-width="1.00704" stroke-linecap="round" stroke-linejoin="round" stroke-miterlimit="4" stroke-dasharray="5.0352 5.0352" stroke-opacity="1" fill="none" fill-rule="nonzero" transform="matrix(1.00029 0 0 1 -481.656 -201.92)"/><path d="M579.048 637.792 579.048 436.384" stroke="#0000C2" stroke-width="1.00704" stroke-linecap="round" stroke-linejoin="round" stroke-miterlimit="4" stroke-dasharray="5.0352 5.0352" stroke-opacity="1" fill="none" fill-rule="nonzero" transform="matrix(1.00029 0 0 1 -481.656 -201.92)"/><path d="M797.239 436.384 797.239 637.792" stroke="#0000C2" stroke-width="1.00704" stroke-linecap="round" stroke-linejoin="round" stroke-miterlimit="4" stroke-dasharray="5.0352 5.0352" stroke-opacity="1" fill="none" fill-rule="nonzero" transform="matrix(1.00029 0 0 1 -481.656 -201.92)"/><path d="M579.048 436.384 797.239 436.384" stroke="#0000C2" stroke-width="1.00704" stroke-linecap="round" stroke-linejoin="round" stroke-miterlimit="4" stroke-dasharray="5.0352 5.0352" stroke-opacity="1" fill="none" fill-rule="nonzero" transform="matrix(1.00029 0 0 1 -481.656 -201.92)"/><path d="M822.415 503.52 914.727 503.52" stroke="#009600" stroke-width="1.00704" stroke-linecap="round" stroke-linejoin="round" stroke-miterlimit="4" stroke-opacity="1" fill="none" fill-rule="nonzero" transform="matrix(1.00029 0 0 1 -481.656 -201.92)"/><path d="M772.063 537.088 914.727 537.088" stroke="#009600" stroke-width="1.00704" stroke-linecap="round" stroke-linejoin="round" stroke-miterlimit="4" stroke-opacity="1" fill="none" fill-rule="nonzero" transform="matrix(1.00029 0 0 1 -481.656 -201.92)"/><path d="M688.143 621.008 688.143 646.184" stroke="#009600" stroke-width="1.00704" stroke-linecap="round" stroke-linejoin="round" stroke-miterlimit="4" stroke-opacity="1" fill="none" fill-rule="nonzero" transform="matrix(1.00029 0 0 1 -481.656 -201.92)"/><path d="M688.143 503.52 688.143 537.088" stroke="#009600" stroke-width="1.00704" stroke-linecap="round" stroke-linejoin="round" stroke-miterlimit="4" stroke-opacity="1" fill="none" fill-rule="nonzero" transform="matrix(1.00029 0 0 1 -481.656 -201.92)"/><path d="M688.143 419.6 814.023 419.6" stroke="#009600" stroke-width="1.00704" stroke-linecap="round" stroke-linejoin="round" stroke-miterlimit="4" stroke-opacity="1" fill="none" fill-rule="nonzero" transform="matrix(1.00029 0 0 1 -481.656 -201.92)"/><path d="M604.224 537.088 570.656 537.088" stroke="#009600" stroke-width="1.00704" stroke-linecap="round" stroke-linejoin="round" stroke-miterlimit="4" stroke-opacity="1" fill="none" fill-rule="nonzero" transform="matrix(1.00029 0 0 1 -481.656 -201.92)"/><path d="M688.143 537.088 721.711 537.088" stroke="#009600" stroke-width="1.00704" stroke-linecap="round" stroke-linejoin="round" stroke-miterlimit="4" stroke-opacity="1" fill="none" fill-rule="nonzero" transform="matrix(1.00029 0 0 1 -481.656 -201.92)"/><path d="M570.656 394.424 822.415 394.424" stroke="#009600" stroke-width="1.00704" stroke-linecap="round" stroke-linejoin="round" stroke-miterlimit="4" stroke-opacity="1" fill="none" fill-rule="nonzero" transform="matrix(1.00029 0 0 1 -481.656 -201.92)"/><path d="M570.656 394.424 570.656 537.088" stroke="#009600" stroke-width="1.00704" stroke-linecap="round" stroke-linejoin="round" stroke-miterlimit="4" stroke-opacity="1" fill="none" fill-rule="nonzero" transform="matrix(1.00029 0 0 1 -481.656 -201.92)"/><path d="M688.143 646.184 814.023 646.184" stroke="#009600" stroke-width="1.00704" stroke-linecap="round" stroke-linejoin="round" stroke-miterlimit="4" stroke-opacity="1" fill="none" fill-rule="nonzero" transform="matrix(1.00029 0 0 1 -481.656 -201.92)"/><path d="M814.023 553.872 814.023 646.184" stroke="#009600" stroke-width="1.00704" stroke-linecap="round" stroke-linejoin="round" stroke-miterlimit="4" stroke-opacity="1" fill="none" fill-rule="nonzero" transform="matrix(1.00029 0 0 1 -481.656 -201.92)"/><path d="M688.143 453.168 688.143 419.6" stroke="#009600" stroke-width="1.00704" stroke-linecap="round" stroke-linejoin="round" stroke-miterlimit="4" stroke-opacity="1" fill="none" fill-rule="nonzero" transform="matrix(1.00029 0 0 1 -481.656 -201.92)"/><path d="M822.415 394.424 822.415 503.52" stroke="#009600" stroke-width="1.00704" stroke-linecap="round" stroke-linejoin="round" stroke-miterlimit="4" stroke-opacity="1" fill="none" fill-rule="nonzero" transform="matrix(1.00029 0 0 1 -481.656 -201.92)"/><path d="M688.143 537.088 688.143 570.656" stroke="#009600" stroke-width="1.00704" stroke-linecap="round" stroke-linejoin="round" stroke-miterlimit="4" stroke-opacity="1" fill="none" fill-rule="nonzero" transform="matrix(1.00029 0 0 1 -481.656 -201.92)"/><path d="M814.023 520.304 965.079 520.304" stroke="#009600" stroke-width="1.00704" stroke-linecap="round" stroke-linejoin="round" stroke-miterlimit="4" stroke-opacity="1" fill="none" fill-rule="nonzero" transform="matrix(1.00029 0 0 1 -481.656 -201.92)"/><path d="M814.023 553.872 965.079 553.872" stroke="#009600" stroke-width="1.00704" stroke-linecap="round" stroke-linejoin="round" stroke-miterlimit="4" stroke-opacity="1" fill="none" fill-rule="nonzero" transform="matrix(1.00029 0 0 1 -481.656 -201.92)"/><path d="M814.023 419.6 814.023 520.304" stroke="#009600" stroke-width="1.00704" stroke-linecap="round" stroke-linejoin="round" stroke-miterlimit="4" stroke-opacity="1" fill="none" fill-rule="nonzero" transform="matrix(1.00029 0 0 1 -481.656 -201.92)"/><path d="M654.576 537.088 688.143 537.088" stroke="#009600" stroke-width="1.00704" stroke-linecap="round" stroke-linejoin="round" stroke-miterlimit="4" stroke-opacity="1" fill="none" fill-rule="nonzero" transform="matrix(1.00029 0 0 1 -481.656 -201.92)"/><path d="M691.165 537.088C691.165 538.756 689.812 540.109 688.143 540.109 686.475 540.109 685.122 538.756 685.122 537.088 685.122 535.419 686.475 534.067 688.143 534.067 689.812 534.067 691.165 535.419 691.165 537.088Z" stroke="#009600" stroke-width="1.00704" stroke-linecap="round" stroke-linejoin="round" stroke-miterlimit="4" stroke-opacity="1" fill="#009600" fill-rule="nonzero" fill-opacity="1" transform="matrix(1.00029 0 0 1 -481.656 -201.92)"/></g></svg>